<?xml version="1.0" encoding="UTF-8"?>
<svg xmlns="http://www.w3.org/2000/svg" xmlns:xlink="http://www.w3.org/1999/xlink" version="1.2" >
<font id="Maleah Regular">
<font-face  font-family="Maleah" units-per-em="1024" ascent="975" descent="-300" font-style="normal" font-weight="400" font-stretch="normal" cap-height="924" x-height="488" underline-position="-125" underline-thickness="50" />
<missing-glyph  horiz-adv-x="512" d="" />
<glyph glyph-name="null" d="" />
<glyph glyph-name="uni000D" unicode="&#xd;" horiz-adv-x="256" d="" />
<glyph glyph-name="space" unicode="&#x20;" horiz-adv-x="248" d="" />
<glyph glyph-name="exclam" unicode="&#x21;" horiz-adv-x="190" d="M125 660 L103 130 L93 130 L70 660 L125 660 Z M68 20 Q68 35 77.5 42 Q87 49 98 49 Q109 49 118.5 42 Q128 35 128 20 Q128 6 118.5 -1.5 Q109 -9 98 -9 Q87 -9 77.5 -1.5 Q68 6 68 20 Z " />
<glyph glyph-name="quotedbl" unicode="&#x22;" horiz-adv-x="360" d="M280 740 L263 565 L253 565 L235 740 L280 740 Z M80 740 L125 740 L108 565 L98 565 L80 740 Z " />
<glyph glyph-name="numbersign" unicode="&#x23;" horiz-adv-x="498" d="M498 450 L498 427 L385 427 L330 237 L440 237 L440 213 L323 213 L261 0 L236 0 L298 213 L132 213 L70 0 L45 0 L107 213 L0 213 L0 237 L114 237 L169 427 L58 427 L58 450 L176 450 L237 660 L262 660 L201 450 L367 450 L428 660 L453 660 L392 450 L498 450 Z M305 237 L360 427 L194 427 L139 237 L305 237 Z " />
<glyph glyph-name="dollar" unicode="&#x24;" horiz-adv-x="490" d="M314 666 Q366 655 396 623 Q426 591 426 544 Q426 529 407 529 L393 529 Q392 529 391.5 529.5 Q391 530 390 530 L390 544 Q390 578 369.5 603 Q349 628 314 639 L314 344 Q377 317 409 273.5 Q441 230 441 178 Q441 114 407 68.5 Q373 23 314 3 L314 -79 L294 -79 L294 -2 Q275 -6 256.5 -7 Q238 -8 219 -8 L219 -78 L199 -78 L199 -6 Q130 2 89 41.5 Q48 81 48 141 Q48 157 68 157 L83 157 Q84 157 84 155 L84 141 Q84 91 115 58.5 Q146 26 199 18 L199 335 Q127 357 91 395 Q55 433 55 496 Q55 562 94 606.5 Q133 651 199 665 L199 741 L219 741 L219 668 Q228 670 238 670 L277 670 Q286 670 295 668 L295 740 L314 742 L314 666 Z M219 374 Q232 370 246 366 L267 360 Q281 357 294 352 L295 645 Q279 648 257 648 Q237 648 219 645 L219 374 Z M199 642 Q152 629 125.5 595.5 Q99 562 99 514 Q99 466 124 434.5 Q149 403 199 383 L199 642 Z M218 19 Q221 19 223 19 L230 18 Q233 18 235 18 Q268 18 295 27 L295 306 Q278 314 259 320 Q240 326 219 331 L218 19 Z M401 168 Q401 206 379.5 238.5 Q358 271 314 296 L314 35 Q355 52 378 86.5 Q401 121 401 168 Z " />
<glyph glyph-name="ampersand" unicode="&#x26;" horiz-adv-x="621" d="M618 468 Q579 365 542.5 280 Q506 195 462 132 L548 48 Q553 44 561.5 36 Q570 28 578 19 Q588 9 599 -2 L532 -2 L433 95 Q389 44 334.5 16.5 Q280 -11 205 -11 Q163 -11 128.5 0 Q94 11 70 31.5 Q46 52 32.5 81 Q19 110 19 145 Q19 171 25.5 195 Q32 219 50 243 Q68 267 100 291 Q132 315 184 340 Q159 364 139 385 Q119 406 105 426 Q91 446 83.5 467 Q76 488 76 512 Q76 548 89 577 Q102 606 125.5 626.5 Q149 647 182.5 658.5 Q216 670 256 670 Q326 670 368.5 635 Q411 600 411 543 Q411 498 363.5 447.5 Q316 397 236 355 L444 153 Q467 183 488 222 Q509 261 528.5 303.5 Q548 346 564.5 388.5 Q581 431 593 468 L618 468 Z M120 518 Q120 497 127.5 479 Q135 461 148.5 443 Q162 425 181 406 Q200 387 224 364 L225 364 Q291 400 329.5 446.5 Q368 493 368 538 Q368 588 336.5 618 Q305 648 252 648 Q192 648 156 612.5 Q120 577 120 518 Z M65 157 Q65 97 103.5 61.5 Q142 26 205 26 Q273 26 323 49 Q373 72 413 115 L195 328 Q155 308 129.5 287.5 Q104 267 89.5 246 Q75 225 70 203 Q65 181 65 157 Z " />
<glyph glyph-name="quotesingle" unicode="&#x27;" horiz-adv-x="205" d="M125 740 L108 565 L98 565 L80 740 L125 740 Z " />
<glyph glyph-name="parenleft" unicode="&#x28;" horiz-adv-x="206" d="M54 295 Q54 379 63.5 445.5 Q73 512 91 565.5 Q109 619 133.5 661.5 Q158 704 188 740 L201 740 Q176 710 155 670.5 Q134 631 119 578 Q104 525 96 455.5 Q88 386 88 295 Q88 204 96 134.5 Q104 65 119 12 Q134 -41 155 -80.5 Q176 -120 201 -150 L188 -150 Q158 -114 133.5 -71.5 Q109 -29 91 24.5 Q73 78 63.5 144.5 Q54 211 54 295 Z " />
<glyph glyph-name="parenright" unicode="&#x29;" horiz-adv-x="206" d="M55 740 Q85 704 109.5 661.5 Q134 619 152 565.5 Q170 512 179.5 445.5 Q189 379 189 295 Q189 211 179.5 144.5 Q170 78 152 24.5 Q134 -29 109.5 -71.5 Q85 -114 55 -150 L42 -150 Q68 -120 88.5 -80.5 Q109 -41 124 12 Q139 65 147 134.5 Q155 204 155 295 Q155 386 147 455.5 Q139 525 124 578 Q109 631 88.5 670.5 Q68 710 42 740 L55 740 Z " />
<glyph glyph-name="plus" unicode="&#x2b;" horiz-adv-x="510" d="M40 260 L40 285 L242 285 L242 482 L268 482 L268 285 L470 285 L470 260 L268 260 L268 52 L242 52 L242 260 L40 260 Z " />
<glyph glyph-name="comma" unicode="&#x2c;" horiz-adv-x="205" d="M60 -200 Q90 -178 108 -145.5 Q126 -113 126 -81 Q126 -52 116.5 -30 Q107 -8 90 0 L73 9 Q72 10 72 12 Q72 13 72 14 Q73 17 76 23 Q79 29 83 35 Q87 41 91 45.5 Q95 50 98 50 Q101 50 111 45 Q131 36 143 8 Q155 -20 155 -57 Q155 -95 129 -137 Q103 -179 60 -210 L60 -200 Z " />
<glyph glyph-name="hyphen" unicode="&#x2d;" horiz-adv-x="375" d="M50 270 L325 270 L325 235 L50 235 L50 270 Z " />
<glyph glyph-name="period" unicode="&#x2e;" horiz-adv-x="190" d="M65 20 Q65 35 74.5 42 Q84 49 95 49 Q106 49 115.5 42 Q125 35 125 20 Q125 6 115.5 -1.5 Q106 -9 95 -9 Q84 -9 74.5 -1.5 Q65 6 65 20 Z " />
<glyph glyph-name="slash" unicode="&#x2f;" horiz-adv-x="225" d="M200 750 L225 750 L25 -120 L0 -120 L200 750 Z " />
<glyph glyph-name="zero" unicode="0" horiz-adv-x="515" d="M258 -10 Q207 -10 165.5 15 Q124 40 94.5 85 Q65 130 49 193.5 Q33 257 33 334 Q33 410 49 472 Q65 534 94.5 578 Q124 622 165.5 646 Q207 670 258 670 Q308 670 349.5 646 Q391 622 420.5 578.5 Q450 535 466 474 Q482 413 482 338 Q482 260 466 195.5 Q450 131 420.5 85.5 Q391 40 349.5 15 Q308 -10 258 -10 Z M81 350 Q81 274 94.5 212 Q108 150 132 106 Q156 62 190 38 Q224 14 266 14 Q305 14 336.5 36 Q368 58 390.5 98.5 Q413 139 425.5 196 Q438 253 438 322 Q438 395 424.5 455 Q411 515 386 557.5 Q361 600 326 623.5 Q291 647 249 647 Q211 647 180 625.5 Q149 604 127 565 Q105 526 93 471.5 Q81 417 81 350 Z " />
<glyph glyph-name="one" unicode="1" horiz-adv-x="379" d="M70 483 L70 501 L277 659 L287 659 L288 605 L288 423 Q288 370 287.5 316 Q287 262 287 212 L287 48 L289 18 L289 0 L243 -1 L243 17 L245 49 L245 605 L70 483 Z " />
<glyph glyph-name="two" unicode="2" horiz-adv-x="480" d="M40 501 Q40 539 56 570 Q72 601 101.5 623.5 Q131 646 172.5 658 Q214 670 264 670 Q303 670 334.5 658 Q366 646 388.5 623.5 Q411 601 423 570 Q435 539 435 501 Q435 484 416.5 452 Q398 420 358 366.5 Q318 313 255 233.5 Q192 154 103 41 L405 41 Q417 42 429 42.5 Q441 43 455 43 L453 0 L50 0 L50 13 Q141 129 205 209 Q269 289 309.5 345 Q350 401 368.5 437 Q387 473 387 500 Q387 566 349.5 606.5 Q312 647 249 647 Q175 647 124.5 608.5 Q74 570 40 501 Z " />
<glyph glyph-name="three" unicode="3" horiz-adv-x="482" d="M33 120 Q33 127 37.5 131 Q42 135 49 136.5 Q56 138 63 138 Q70 138 74 138 Q78 138 78 134 L78 119 Q78 71 120.5 41.5 Q163 12 234 12 Q274 12 306.5 23.5 Q339 35 362.5 56.5 Q386 78 398.5 108 Q411 138 411 174 Q411 334 192 334 L145 332 L145 354 L189 356 Q286 365 335 410 Q384 455 384 525 Q384 580 346.5 613 Q309 646 247 646 Q180 646 139 614.5 Q98 583 98 530 L98 512 Q98 509 94 508 Q90 507 83 507 Q76 507 69.5 509 Q63 511 58 515 Q53 519 53 525 Q53 557 67.5 583.5 Q82 610 109 629 Q136 648 173.5 658.5 Q211 669 257 669 Q296 669 328.5 659 Q361 649 384 630.5 Q407 612 419.5 586.5 Q432 561 432 529 Q432 463 387 417.5 Q342 372 253 354 Q459 336 459 175 Q459 133 443 99 Q427 65 397.5 41 Q368 17 326.5 3.5 Q285 -10 234 -10 Q143 -10 88 25.5 Q33 61 33 120 Z " />
<glyph glyph-name="four" unicode="4" horiz-adv-x="501" d="M8 212 L25 236 L349 660 L359 660 L359 235 L488 235 L488 202 L359 202 L359 50 L361 18 L361 0 L314 0 L314 18 L316 50 L316 202 L8 202 L8 212 Z M316 236 L316 584 L56 237 L316 236 Z " />
<glyph glyph-name="five" unicode="5" horiz-adv-x="496" d="M196 -10 Q154 -10 119 3.5 Q84 17 68 40 Q66 44 66 48 Q66 51 68 55.5 Q70 60 76 65.5 Q82 71 87.5 74 Q93 77 94 77 Q95 77 96 76 Q109 47 144 31 Q179 15 216 15 Q261 15 297.5 29 Q334 43 360 68.5 Q386 94 400.5 130.5 Q415 167 415 211 Q415 248 399 278 Q383 308 353 329.5 Q323 351 281.5 362.5 Q240 374 189 374 Q159 374 131 371.5 Q103 369 86 364 L86 660 L401 660 L400 621 L109 621 L109 406 Q123 410 146.5 412 Q170 414 196 414 Q253 414 300 401 Q347 388 380.5 364 Q414 340 432.5 306.5 Q451 273 451 232 Q451 178 432.5 133 Q414 88 380.5 56.5 Q347 25 300 7.5 Q253 -10 196 -10 Z " />
<glyph glyph-name="six" unicode="6" horiz-adv-x="488" d="M36 234 Q36 310 63 379 Q90 448 138.5 505 Q187 562 255.5 605 Q324 648 408 670 L409 655 Q342 637 285.5 601.5 Q229 566 187 517.5 Q145 469 119 409.5 Q93 350 86 284 Q112 332 162 360 Q212 388 276 388 Q317 388 350.5 374.5 Q384 361 408 336 Q432 311 445 276 Q458 241 458 199 Q458 152 443 113.5 Q428 75 400.5 47.5 Q373 20 334.5 5 Q296 -10 249 -10 Q201 -10 161.5 7.5 Q122 25 94.5 57 Q67 89 51.5 134 Q36 179 36 234 Z M84 235 Q84 185 96.5 144 Q109 103 130.5 74 Q152 45 182.5 29 Q213 13 250 13 Q287 13 317 25.5 Q347 38 368.5 61 Q390 84 402 116.5 Q414 149 414 188 Q414 226 403 256.5 Q392 287 371.5 308.5 Q351 330 322 342 Q293 354 258 354 Q225 354 196 345.5 Q167 337 144 321 Q121 305 105.5 283.5 Q90 262 84 235 Z " />
<glyph glyph-name="seven" unicode="7" horiz-adv-x="500" d="M50 660 L460 660 L460 650 Q388 528 328.5 420.5 Q269 313 226.5 227.5 Q184 142 161 83 Q138 24 138 0 L82 0 Q82 11 106.5 61 Q131 111 175 192.5 Q219 274 282 383.5 Q345 493 421 622 L50 622 L50 660 Z " />
<glyph glyph-name="eight" unicode="8" horiz-adv-x="482" d="M40 149 Q40 220 80.5 268 Q121 316 191 331 Q123 357 94 402.5 Q65 448 65 505 Q65 543 78.5 573.5 Q92 604 116 625.5 Q140 647 174 659 Q208 671 249 671 Q290 671 323 659 Q356 647 379.5 624.5 Q403 602 416 571 Q429 540 429 502 Q429 442 396.5 400.5 Q364 359 308 344 Q375 318 408.5 272 Q442 226 442 168 Q442 128 427.5 95.5 Q413 63 387 40 Q361 17 323.5 4 Q286 -9 241 -9 Q196 -9 158.5 2.5 Q121 14 95 34.5 Q69 55 54.5 84 Q40 113 40 149 Z M109 519 Q109 461 143.5 418.5 Q178 376 259 358 L290 350 Q335 366 360 404.5 Q385 443 385 498 Q385 565 346.5 606 Q308 647 244 647 Q183 647 146 612 Q109 577 109 519 Z M207 326 Q151 309 119 266.5 Q87 224 87 161 Q87 94 130 53 Q173 12 245 12 Q316 12 359 50.5 Q402 89 402 153 Q402 210 363.5 253.5 Q325 297 249 314 Q227 319 207 326 Z " />
<glyph glyph-name="nine" unicode="9" horiz-adv-x="487" d="M30 465 Q30 516 45 554 Q60 592 87.5 618 Q115 644 153.5 657 Q192 670 239 670 Q287 670 326.5 652.5 Q366 635 393.5 603 Q421 571 436.5 526 Q452 481 452 426 Q452 302 425 218 Q398 134 349.5 83.5 Q301 33 232.5 11.5 Q164 -10 80 -10 L80 5 Q150 5 208 24.5 Q266 44 308.5 89 Q351 134 375.5 207 Q400 280 404 386 Q378 335 330 305.5 Q282 276 223 276 Q180 276 144 289.5 Q108 303 83 328 Q58 353 44 388 Q30 423 30 465 Z M239 647 Q166 647 122 601.5 Q78 556 78 465 Q78 394 123 351.5 Q168 309 242 309 Q300 309 344.5 340.5 Q389 372 405 425 Q405 475 393 516 Q381 557 359 586 Q337 615 306.5 631 Q276 647 239 647 Z " />
<glyph glyph-name="colon" unicode="&#x3a;" horiz-adv-x="190" d="M65 195 Q65 210 74.5 217 Q84 224 95 224 Q106 224 115.5 217 Q125 210 125 195 Q125 181 115.5 173.5 Q106 166 95 166 Q84 166 74.5 173.5 Q65 181 65 195 Z M125 20 Q125 6 115.5 -1.5 Q106 -9 95 -9 Q84 -9 74.5 -1.5 Q65 6 65 20 Q65 35 74.5 42 Q84 49 95 49 Q106 49 115.5 42 Q125 35 125 20 Z " />
<glyph glyph-name="semicolon" unicode="&#x3b;" horiz-adv-x="205" d="M131 195 Q131 181 121.5 173.5 Q112 166 101 166 Q90 166 80.5 173.5 Q71 181 71 195 Q71 210 80.5 217 Q90 224 101 224 Q112 224 121.5 217 Q131 210 131 195 Z M155 -57 Q155 -95 129 -137 Q103 -179 60 -210 L60 -200 Q90 -178 108 -145.5 Q126 -113 126 -81 Q126 -52 116.5 -30 Q107 -8 90 0 L73 9 Q71 10 71 11 Q71 12 72 14 L86 39 Q92 50 98 50 Q101 50 111 45 Q131 36 143 8 Q155 -20 155 -57 Z " />
<glyph glyph-name="equal" unicode="&#x3d;" horiz-adv-x="500" d="M40 349 L40 374 L460 374 L460 349 L40 349 Z M460 195 L460 170 L40 170 L40 195 L460 195 Z " />
<glyph glyph-name="question" unicode="&#x3f;" horiz-adv-x="467" d="M59 489 Q41 489 41 509 Q41 545 55.5 575 Q70 605 96 626 Q122 647 159.5 658.5 Q197 670 242 670 Q320 670 366.5 625.5 Q413 581 413 507 Q413 470 398 437 Q383 404 355.5 378 Q328 352 289.5 333.5 Q251 315 203 307 Q202 280 201 249 Q200 218 198 192 Q197 160 195 130 L185 130 Q181 173 179 214 Q176 248 174 284.5 Q172 321 172 345 Q216 350 251.5 363.5 Q287 377 312.5 398.5 Q338 420 352 447.5 Q366 475 366 507 Q366 571 327.5 609.5 Q289 648 225 648 Q161 648 122.5 611 Q84 574 84 513 L84 489 L59 489 Z M160 25 Q160 40 169.5 47 Q179 54 190 54 Q201 54 210.5 47 Q220 40 220 25 Q220 11 210.5 3.5 Q201 -4 190 -4 Q179 -4 169.5 3.5 Q160 11 160 25 Z " />
<glyph glyph-name="A" unicode="A" horiz-adv-x="649" d="M69 1 L31 1 L52 51 L310 666 L332 666 L612 1 L561 1 L460 254 L170 254 L69 1 Z M313 601 Q275 510 241.5 430 Q208 350 180 282 L447 282 L313 601 Z " />
<glyph glyph-name="B" unicode="B" horiz-adv-x="568" d="M68 56 L68 606 L65 642 L65 661 L237 661 Q349 661 405 618 Q461 575 461 504 Q461 450 421 410 Q381 370 309 350 Q413 336 465.5 293 Q518 250 518 187 Q518 145 497.5 110.5 Q477 76 439.5 52 Q402 28 349.5 14.5 Q297 1 232 1 L65 1 L65 20 L68 56 Z M231 29 Q285 29 329 40 Q373 51 404.5 71.5 Q436 92 453 120.5 Q470 149 470 183 Q470 248 412 287.5 Q354 327 239 327 L112 327 L112 29 L231 29 Z M226 632 Q226 632 213.5 632.5 Q201 633 183.5 633 Q166 633 146.5 633 Q127 633 113 633 L113 354 L188 354 Q239 354 280.5 364 Q322 374 352 392 Q382 410 398 435 Q414 460 414 491 Q414 555 367 593.5 Q320 632 226 632 Z " />
<glyph glyph-name="C" unicode="C" horiz-adv-x="712" d="M68 316 Q68 396 92.5 462 Q117 528 162 574.5 Q207 621 270 646.5 Q333 672 410 672 Q443 672 473.5 668.5 Q504 665 531 658.5 Q558 652 579 643 Q600 634 613 623 L614 590 Q609 590 605.5 589.5 Q602 589 598 589 Q573 604 552 615 Q531 626 510.5 633 Q490 640 466.5 643 Q443 646 411 646 Q344 646 289.5 623.5 Q235 601 196 559.5 Q157 518 136 459.5 Q115 401 115 330 Q115 260 135.5 202 Q156 144 193 102.5 Q230 61 282 38.5 Q334 16 397 16 Q435 16 474.5 23 Q514 30 548 43 Q563 51 576 58 Q587 64 596.5 69 Q606 74 608 75 L622 77 L620 44 Q586 21 525 6.5 Q464 -8 396 -8 Q322 -8 261.5 15.5 Q201 39 158 81.5 Q115 124 91.5 183.5 Q68 243 68 316 Z " />
<glyph glyph-name="D" unicode="D" horiz-adv-x="687" d="M65 660 L244 660 Q328 660 397 640.5 Q466 621 514.5 583 Q563 545 590 487.5 Q617 430 617 355 Q617 270 590.5 205 Q564 140 516 95.5 Q468 51 400 27 Q332 3 249 0 L65 0 L65 19 L68 55 L68 605 L65 641 L65 660 Z M113 28 L217 28 Q236 27 248 27 Q320 30 379.5 51 Q439 72 481.5 111 Q524 150 547 207 Q570 264 570 338 Q570 411 545.5 466.5 Q521 522 476.5 559 Q432 596 369.5 614.5 Q307 633 231 633 L113 633 L113 28 Z " />
<glyph glyph-name="E" unicode="E" horiz-adv-x="573" d="M65 19 L68 55 L68 605 L65 641 L65 660 L478 660 L478 629 L461 629 Q420 632 377 633 Q334 634 289 634 Q244 634 200.5 633.5 Q157 633 113 633 L113 354 L328 354 Q360 357 392 357 L392 323 Q354 323 317.5 325 Q281 327 243 327 Q211 327 178 326.5 Q145 326 113 326 L113 28 L428 28 L486 33 L503 33 L503 0 L65 0 L65 19 Z " />
<glyph glyph-name="F" unicode="F" horiz-adv-x="538" d="M66 0 L66 19 L69 55 L69 605 L66 641 L66 660 L469 660 L469 629 L452 629 Q409 632 364 633 Q319 634 272 634 L114 633 L114 354 L329 354 Q361 357 393 357 L393 323 L370 323 Q306 328 242 327.5 Q178 327 114 326 L114 55 L117 19 L117 0 L66 0 Z " />
<glyph glyph-name="G" unicode="G" horiz-adv-x="700" d="M398 -10 Q324 -10 263.5 13.5 Q203 37 159.5 79.5 Q116 122 92.5 181.5 Q69 241 69 314 Q69 394 94.5 460 Q120 526 166 572.5 Q212 619 277 644.5 Q342 670 421 670 Q456 670 488.5 666.5 Q521 663 549 656.5 Q577 650 599 641 Q621 632 634 621 L635 588 Q630 588 626.5 587.5 Q623 587 619 587 L618 588 Q592 604 570 615 Q548 626 525.5 632.5 Q503 639 478 642 Q453 645 421 645 Q352 645 295.5 622.5 Q239 600 199 558.5 Q159 517 137 458.5 Q115 400 115 329 Q115 259 136.5 202 Q158 145 197 104.5 Q236 64 290.5 41.5 Q345 19 412 19 Q472 19 522.5 31.5 Q573 44 602 66 L602 235 L599 271 L599 290 L650 290 L650 271 L647 235 L647 74 Q631 55 605.5 39.5 Q580 24 547 13 Q514 2 476 -4 Q438 -10 398 -10 Z " />
<glyph glyph-name="H" unicode="H" horiz-adv-x="644" d="M532 354 L532 605 L529 641 L529 660 L580 660 L580 641 L577 605 L577 55 L580 19 L580 0 L529 0 L529 19 L532 55 L532 326 L113 326 L113 55 L116 19 L116 0 L65 0 L65 19 L68 55 L68 605 L65 641 L65 660 L116 660 L116 641 L113 605 L113 354 L532 354 Z " />
<glyph glyph-name="I" unicode="I" horiz-adv-x="190" d="M121 660 L121 641 L118 605 L118 55 L121 19 L121 0 L70 0 L70 19 L73 55 L73 605 L70 641 L70 660 L121 660 Z " />
<glyph glyph-name="J" unicode="J" horiz-adv-x="190" d="M-27 -173 Q-37 -173 -40 -167 Q-43 -161 -43 -154 Q-43 -147 -41 -140.5 Q-39 -134 -38 -132 Q-34 -133 -29.5 -133.5 Q-25 -134 -20 -135 Q-15 -136 -10 -137 Q28 -137 50.5 -85.5 Q73 -34 73 50 L73 605 L70 641 L70 660 L121 660 L121 641 L118 605 L118 147 Q118 75 107.5 16 Q97 -43 78 -85 Q59 -127 32.5 -150 Q6 -173 -27 -173 Z " />
<glyph glyph-name="K" unicode="K" horiz-adv-x="590" d="M455 659 L510 659 Q430 579 338.5 501 Q247 423 162 348 L555 0 L488 0 L114 338 L455 659 Z M114 658 L114 639 L111 603 L111 53 L114 17 L114 -2 L63 -2 L63 17 L66 53 L66 603 L63 639 L63 658 L114 658 Z " />
<glyph glyph-name="L" unicode="L" horiz-adv-x="553" d="M68 55 L68 605 L65 641 L65 660 L116 660 L116 641 L113 605 L113 28 L403 28 L465 34 L483 34 L483 0 L65 0 L65 19 L68 55 Z " />
<glyph glyph-name="M" unicode="M" horiz-adv-x="808" d="M88 660 L139 660 L411 56 L678 660 L724 660 L724 641 L723 606 L744 55 L748 19 L748 0 L700 0 L700 19 L701 54 L680 598 L412 -5 L389 -5 L117 603 L95 53 L96 19 L96 0 L61 0 L61 19 L65 55 Q72 194 77.5 332 Q83 470 89 610 L88 641 L88 660 Z " />
<glyph glyph-name="N" unicode="N" horiz-adv-x="643" d="M64 0 L64 19 L67 55 L67 605 L64 641 L64 660 L102 660 L546 93 L546 605 L542 641 L542 660 L584 660 L584 641 L581 605 L581 -5 L566 -5 Q449 143 334 289.5 Q219 436 102 585 L102 55 L106 19 L106 0 L64 0 Z " />
<glyph glyph-name="O" unicode="O" horiz-adv-x="795" d="M398 -10 Q324 -10 263.5 14.5 Q203 39 160 84 Q117 129 93.5 192.5 Q70 256 70 333 Q70 409 93.5 471 Q117 533 160 577.5 Q203 622 263.5 646 Q324 670 398 670 Q472 670 532 645.5 Q592 621 635 576 Q678 531 701.5 468 Q725 405 725 328 Q725 252 701.5 189.5 Q678 127 635 83 Q592 39 532 14.5 Q472 -10 398 -10 Z M118 350 Q118 275 139 213 Q160 151 198 107 Q236 63 289.5 39 Q343 15 408 15 Q468 15 518 36 Q568 57 603 96 Q638 135 657.5 189.5 Q677 244 677 311 Q677 386 656.5 448 Q636 510 598 554 Q560 598 507 622 Q454 646 389 646 Q328 646 278 625 Q228 604 192.5 565 Q157 526 137.5 471.5 Q118 417 118 350 Z " />
<glyph glyph-name="P" unicode="P" horiz-adv-x="567" d="M251 660 Q307 660 352 647 Q397 634 429.5 611 Q462 588 479.5 555 Q497 522 497 482 Q497 442 477.5 409 Q458 376 422.5 352.5 Q387 329 337 316 Q287 303 226 303 L113 303 L113 55 L116 19 L116 0 L65 0 L65 19 L68 55 L68 605 L65 641 L65 660 L251 660 Z M113 331 L202 331 Q221 330 236 330 Q284 330 323.5 340.5 Q363 351 390.5 370.5 Q418 390 433.5 417.5 Q449 445 449 478 Q449 513 434 541 Q419 569 391.5 589.5 Q364 610 325.5 621 Q287 632 240 632 Q240 632 225.5 632.5 Q211 633 191.5 633 Q172 633 150 633 Q128 633 113 633 L113 331 Z " />
<glyph glyph-name="Q" unicode="Q" horiz-adv-x="795" d="M425 -8 Q417 -9 410.5 -9 Q404 -9 396 -9 Q322 -9 261.5 16 Q201 41 158.5 86.5 Q116 132 93 195 Q70 258 70 334 Q70 410 93.5 472 Q117 534 160 578.5 Q203 623 263.5 647 Q324 671 398 671 Q472 671 532 646.5 Q592 622 635 577 Q678 532 701.5 469 Q725 406 725 329 Q725 263 707.5 207.5 Q690 152 657 109 Q624 66 577.5 37.5 Q531 9 473 -2 Q502 -11 532.5 -31 Q563 -51 594.5 -71 Q626 -91 658 -106 Q690 -121 721 -121 Q736 -121 747.5 -119.5 Q759 -118 763 -116 L763 -124 Q751 -129 731.5 -133 Q712 -137 691 -137 Q658 -137 624 -121.5 Q590 -106 556.5 -85 Q523 -64 490 -42.5 Q457 -21 425 -8 Z M119 351 Q119 276 140 214 Q161 152 199 108 Q237 64 290.5 40 Q344 16 409 16 Q469 16 519 37 Q569 58 604 97 Q639 136 658.5 190.5 Q678 245 678 312 Q678 387 657.5 449 Q637 511 599 555 Q561 599 508 623 Q455 647 390 647 Q329 647 279 626 Q229 605 193.5 566 Q158 527 138.5 472.5 Q119 418 119 351 Z " />
<glyph glyph-name="R" unicode="R" horiz-adv-x="529" d="M232 661 Q281 661 321.5 649 Q362 637 390.5 614.5 Q419 592 435 560.5 Q451 529 451 491 Q451 457 433.5 428 Q416 399 387.5 377 Q359 355 324.5 340.5 Q290 326 255 320 L527 1 L468 1 L201 317 L112 317 L112 56 L115 20 L115 1 L64 1 L64 20 L67 56 L67 606 L64 642 L64 661 L232 661 Z M111 345 L200 345 Q232 345 267.5 355 Q303 365 333 384 Q363 403 382.5 429 Q402 455 402 487 Q402 520 389 547 Q376 574 352 593 Q328 612 294.5 622.5 Q261 633 220 633 Q220 633 208 633.5 Q196 634 179 634 Q162 634 143.5 634 Q125 634 111 634 L111 345 Z " />
<glyph glyph-name="S" unicode="S" horiz-adv-x="506" d="M68 106 L89 107 Q98 95 108 81 Q118 67 127 55 Q129 52 132 50 Q173 33 208 23 Q243 13 263 13 Q295 13 321.5 24 Q348 35 367 55.5 Q386 76 396.5 104.5 Q407 133 407 167 Q407 225 366.5 263 Q326 301 245 327 Q167 353 127 392 Q87 431 87 493 Q87 533 100 565.5 Q113 598 136.5 621 Q160 644 193 656.5 Q226 669 266 669 Q305 669 345.5 656.5 Q386 644 413 623 L416 572 L395 571 Q387 580 377.5 591.5 Q368 603 361 611.5 Q354 620 341 626 Q328 632 313 636.5 Q298 641 283.5 643 Q269 645 261 645 Q201 645 165.5 608 Q130 571 130 510 Q130 456 167.5 420.5 Q205 385 279 361 Q364 333 407 290 Q450 247 450 179 Q450 136 436.5 101 Q423 66 398.5 41 Q374 16 339 2.5 Q304 -11 262 -11 Q220 -11 168 2.5 Q116 16 71 38 L68 106 Z " />
<glyph glyph-name="T" unicode="T" horiz-adv-x="675" d="M45 660 L630 660 L630 628 L612 628 L550 633 L360 633 L360 55 L364 19 L364 0 L311 0 L311 19 L315 55 L315 633 L125 633 L63 628 L45 628 L45 660 Z " />
<glyph glyph-name="U" unicode="U" horiz-adv-x="658" d="M76 660 L127 660 L127 641 L124 605 L124 242 Q124 192 140 151 Q156 110 185.5 80.5 Q215 51 256.5 35 Q298 19 349 19 Q396 19 434 33.5 Q472 48 499 75 Q526 102 541 139.5 Q556 177 556 223 L556 605 L552 641 L552 660 L594 660 L594 641 L591 605 L591 234 Q591 179 572.5 134 Q554 89 520.5 57 Q487 25 440 7.5 Q393 -10 335 -10 Q277 -10 230 7.5 Q183 25 149.5 57 Q116 89 97.5 134 Q79 179 79 234 L79 605 L76 641 L76 660 Z " />
<glyph glyph-name="V" unicode="V" horiz-adv-x="645" d="M36 660 L87 660 L333 63 Q392 209 452.5 361.5 Q513 514 572 660 L609 660 Q542 492 473 327.5 Q404 163 335 -5 L314 -5 L36 660 Z " />
<glyph glyph-name="W" unicode="W" horiz-adv-x="863" d="M67 660 L248 89 L431 665 L441 665 L650 90 L810 661 L848 661 L651 -5 L641 -5 L435 567 L247 -5 L236 -5 L16 660 L67 660 Z " />
<glyph glyph-name="X" unicode="X" horiz-adv-x="657" d="M323 308 L91 0 L51 0 L307 328 L49 660 L106 660 L106 662 L343 355 L554 661 L591 661 L360 332 L620 1 L558 1 L323 308 Z " />
<glyph glyph-name="Y" unicode="Y" horiz-adv-x="656" d="M35 660 L89 660 L346 331 L583 660 L621 660 L360 304 L360 56 L363 20 L363 1 L312 1 L312 20 L315 56 L315 303 L35 660 Z " />
<glyph glyph-name="Z" unicode="Z" horiz-adv-x="646" d="M479 633 L190 633 L128 628 L110 628 L110 660 L541 660 L541 657 Q443 500 347.5 343 Q252 186 155 28 L476 28 L538 33 L556 33 L556 0 L98 0 L98 13 L479 633 Z " />
<glyph glyph-name="bracketleft" unicode="&#x5b;" horiz-adv-x="218" d="M213 740 L213 729 L97 729 L97 -138 L213 -138 L213 -150 L66 -150 L66 740 L213 740 Z " />
<glyph glyph-name="backslash" unicode="&#x5c;" horiz-adv-x="200" d="M25 750 L200 -120 L175 -120 L0 750 L25 750 Z " />
<glyph glyph-name="bracketright" unicode="&#x5d;" horiz-adv-x="213" d="M148 740 L148 -150 L5 -150 L5 -138 L117 -138 L117 729 L5 729 L5 740 L148 740 Z " />
<glyph glyph-name="asciicircum" unicode="&#x5e;" horiz-adv-x="340" d="M163 705 L178 705 L307 530 L301 530 L171 658 L45 530 L39 530 L163 705 Z " />
<glyph glyph-name="underscore" unicode="&#x5f;" horiz-adv-x="500" d="M25 -120 L25 -95 L475 -95 L475 -120 L25 -120 Z " />
<glyph glyph-name="grave" unicode="&#x60;" horiz-adv-x="340" d="M88 707 L175 530 L169 530 L62 676 Q59 681 56.5 686 Q54 691 52 696 Q50 701 48 707 L88 707 Z " />
<glyph glyph-name="a" unicode="a" horiz-adv-x="480" d="M81 318 Q71 318 71 332 Q71 359 83.5 382.5 Q96 406 118.5 423.5 Q141 441 171.5 450.5 Q202 460 238 460 Q306 460 340 429.5 Q374 399 374 348 L374 70 Q374 47 389 33 Q404 19 428 19 Q443 19 454.5 26 Q466 33 471 45 L472 42 Q463 19 444 4.5 Q425 -10 403 -10 Q374 -10 355.5 9.5 Q337 29 334 61 Q305 26 262 8 Q219 -10 171 -10 Q120 -10 88.5 16 Q57 42 57 85 Q57 138 126.5 183.5 Q196 229 333 258 L333 337 Q333 382 305.5 409.5 Q278 437 224 437 Q200 437 179.5 429 Q159 421 143.5 407.5 Q128 394 119.5 375.5 Q111 357 111 335 L112 323 Q112 318 107 318 L81 318 Z M97 95 Q97 62 123.5 41.5 Q150 21 194 21 Q237 21 274 34.5 Q311 48 334 74 L334 239 Q216 215 156.5 177 Q97 139 97 95 Z " />
<glyph glyph-name="b" unicode="b" horiz-adv-x="493" d="M41 737 L75 752 L83 752 L83 381 Q112 418 159 439.5 Q206 461 257 461 Q299 461 333.5 446 Q368 431 392 403.5 Q416 376 429.5 337 Q443 298 443 251 Q443 193 426.5 145 Q410 97 380 62.5 Q350 28 307.5 9.5 Q265 -9 213 -9 Q181 -9 146 2 Q111 13 81 32 Q80 27 74.5 20 Q69 13 62 6 Q55 -2 45 -10 L42 -10 L41 737 Z M230 428 Q185 428 144.5 408 Q104 388 83 355 L83 82 Q116 52 155.5 34 Q195 16 227 16 Q267 16 299.5 32 Q332 48 355.5 77.5 Q379 107 391.5 148.5 Q404 190 404 241 Q404 283 391.5 317.5 Q379 352 356 376.5 Q333 401 301 414.5 Q269 428 230 428 Z " />
<glyph glyph-name="c" unicode="c" horiz-adv-x="477" d="M260 -10 Q212 -10 173.5 6 Q135 22 107 50.5 Q79 79 64 120 Q49 161 49 210 Q49 266 65.5 312 Q82 358 112.5 391 Q143 424 185.5 442 Q228 460 280 460 Q328 460 365.5 443.5 Q403 427 428 386 Q430 384 430 382 L431 381 L401 353 L375 388 Q358 411 327 425 Q296 439 263 439 Q224 439 192 424.5 Q160 410 137 383 Q114 356 101.5 318 Q89 280 89 233 Q89 187 103 149 Q117 111 142 84 Q167 57 202.5 42 Q238 27 281 27 Q316 27 356.5 47 Q397 67 428 100 L432 100 L432 96 Q406 48 359 19 Q312 -10 260 -10 Z " />
<glyph glyph-name="d" unicode="d" horiz-adv-x="496" d="M235 -10 Q193 -10 158.5 5 Q124 20 99.5 47 Q75 74 61.5 112.5 Q48 151 48 197 Q48 256 65 304.5 Q82 353 113.5 387.5 Q145 422 189 441 Q233 460 287 460 Q309 460 340.5 454.5 Q372 449 406 439 Q406 517 406 586.5 Q406 656 404 730 L405 746 L407 747 L408 747 L439 757 L447 757 L447 50 L450 18 L450 0 L412 0 Q411 11 410 22 Q408 32 407.5 42 Q407 52 407 59 Q380 27 333.5 8.5 Q287 -10 235 -10 Z M89 210 Q89 168 101.5 133.5 Q114 99 137 75 Q160 51 192.5 37.5 Q225 24 264 24 Q308 24 346.5 38.5 Q385 53 407 77 L407 394 Q378 404 355.5 412 Q333 420 316 425 Q296 431 281 436 Q238 436 202.5 420 Q167 404 142 374 Q117 344 103 302.5 Q89 261 89 210 Z " />
<glyph glyph-name="e" unicode="e" horiz-adv-x="483" d="M52 210 Q52 266 67 312 Q82 358 110 391 Q138 424 176.5 442 Q215 460 263 460 Q302 460 333.5 444.5 Q365 429 387.5 401.5 Q410 374 422.5 334.5 Q435 295 435 247 L417 245 L92 245 Q92 242 92 238 Q92 193 104.5 154 Q117 115 142 86.5 Q167 58 203 42.5 Q239 27 284 27 Q319 27 359.5 47 Q400 67 431 100 L435 100 L435 96 Q409 48 362 19 Q315 -10 263 -10 Q215 -10 176.5 6 Q138 22 110 50.5 Q82 79 67 120 Q52 161 52 210 Z M398 268 Q393 346 354 392.5 Q315 439 252 439 Q186 439 143 392.5 Q100 346 92 268 L398 268 Z " />
<glyph glyph-name="f" unicode="f" horiz-adv-x="337" d="M130 50 L130 427 L40 427 L40 450 L130 450 L130 490 Q130 537 150.5 583.5 Q171 630 204 667 Q237 704 278 727 Q319 750 360 750 Q371 750 385 745 Q399 740 409 731.5 Q419 723 421 716.5 Q423 710 423 707 Q423 698 414 688 L407 688 Q390 693 374.5 701 Q359 709 341 709 Q306 709 275 695 Q244 681 220.5 658 Q197 635 183.5 604 Q170 573 170 538 L170 450 L302 450 L302 427 L170 427 L170 50 L172 18 L172 0 L128 0 L128 18 L130 50 Z " />
<glyph glyph-name="g" unicode="g" horiz-adv-x="536" d="M488 448 L488 421 L366 426 Q395 405 411.5 373 Q428 341 428 300 Q428 227 384.5 183 Q341 139 254 139 Q234 139 215.5 142.5 Q197 146 180 152 Q151 144 134 128.5 Q117 113 117 94 Q117 70 140 55.5 Q163 41 201 41 L320 41 Q404 41 439.5 6.5 Q475 -28 475 -85 Q475 -120 458 -149 Q441 -178 409.5 -198.5 Q378 -219 333.5 -230 Q289 -241 235 -241 Q161 -241 116.5 -209 Q72 -177 72 -123 Q72 -105 78.5 -84 Q85 -63 96.5 -44.5 Q108 -26 124.5 -11.5 Q141 3 162 9 Q124 14 102 32.5 Q80 51 80 78 Q80 102 103.5 123.5 Q127 145 165 158 Q125 178 102.5 214.5 Q80 251 80 301 Q80 373 124.5 415.5 Q169 458 255 458 Q276 458 294.5 454.5 Q313 451 330 445 L488 448 Z M121 302 Q121 238 158.5 199 Q196 160 259 160 Q322 160 353.5 198.5 Q385 237 385 300 Q385 363 348 401.5 Q311 440 250 440 Q186 440 153.5 402.5 Q121 365 121 302 Z M189 6 Q171 6 156 -5.5 Q141 -17 130.5 -35 Q120 -53 114 -75 Q108 -97 108 -118 Q108 -168 144 -198 Q180 -228 240 -228 Q285 -228 321.5 -218.5 Q358 -209 384 -192 Q410 -175 424.5 -151 Q439 -127 439 -97 Q439 -50 407 -22 Q375 6 300 6 L189 6 Z " />
<glyph glyph-name="h" unicode="h" horiz-adv-x="454" d="M50 0 L50 18 L52 50 L52 651 Q52 659 51 669 Q51 678 51 690 Q51 702 50 717 L50 735 L84 750 L92 750 L92 376 Q128 414 170 437 Q212 460 263 460 Q330 460 371 428 Q412 396 412 343 L412 50 L414 18 L414 0 L370 0 L370 18 L372 50 L372 320 Q372 368 336.5 396.5 Q301 425 241 425 Q192 425 156 407.5 Q120 390 92 361 L92 50 L94 18 L94 0 L50 0 Z " />
<glyph glyph-name="i" unicode="i" horiz-adv-x="151" d="M44 640 Q44 655 53.5 662 Q63 669 74 669 Q85 669 94.5 662 Q104 655 104 640 Q104 626 94.5 618.5 Q85 611 74 611 Q63 611 53.5 618.5 Q44 626 44 640 Z M54 445 L88 460 L96 460 L96 50 L99 18 L99 0 L54 0 L54 18 L56 50 L56 361 Q56 369 55 379 Q55 388 55 400 Q55 412 54 427 L54 445 Z " />
<glyph glyph-name="j" unicode="j" horiz-adv-x="151" d="M46 640 Q46 655 55.5 662 Q65 669 76 669 Q87 669 96.5 662 Q106 655 106 640 Q106 626 96.5 618.5 Q87 611 76 611 Q65 611 55.5 618.5 Q46 626 46 640 Z M-7 -223 Q20 -206 33 -185.5 Q46 -165 51.5 -139.5 Q57 -114 57 -85 Q57 -83 56.5 -65.5 Q56 -48 56 -9 L56 361 L54 445 L88 460 L96 460 L96 -3 Q96 -40 94.5 -71.5 Q93 -103 83.5 -130.5 Q74 -158 53 -183 Q32 -208 -7 -232 L-7 -223 Z " />
<glyph glyph-name="k" unicode="k" horiz-adv-x="420" d="M84 760 L92 760 L92 255 L357 450 L396 450 L129 263 L390 0 L341 0 L92 248 L92 50 L95 18 L95 0 L50 0 L50 18 L52 50 L52 661 Q52 669 51 679 Q51 688 51 700 Q51 712 50 727 L50 745 L84 760 Z " />
<glyph glyph-name="l" unicode="l" horiz-adv-x="132" d="M44 0 L44 18 L46 50 L46 661 Q46 669 45 679 Q45 688 45 700 Q45 712 44 727 L44 745 L78 760 L86 760 L86 50 L88 18 L88 0 L44 0 Z " />
<glyph glyph-name="m" unicode="m" horiz-adv-x="757" d="M571 460 Q636 460 675.5 428 Q715 396 715 343 L715 50 L717 18 L717 0 L672 0 L672 18 L675 50 L675 320 Q675 368 640.5 396.5 Q606 425 549 425 Q501 425 464 406.5 Q427 388 397 356 L397 51 L400 19 L400 1 L354 1 L354 19 L357 51 L357 321 Q357 369 322.5 397.5 Q288 426 231 426 Q185 426 150 408.5 Q115 391 87 362 L87 51 L89 19 L89 1 L45 1 L45 19 L47 51 L47 362 Q47 370 46 380 Q46 389 46 401 Q46 413 45 428 L45 446 L77 461 L85 461 Q85 447 85 433 Q85 421 85.5 407.5 Q86 394 86 383 L87 383 L87 377 Q123 415 164 438 Q205 461 253 461 Q310 461 347.5 436 Q385 411 394 369 Q433 411 476.5 435.5 Q520 460 571 460 Z " />
<glyph glyph-name="n" unicode="n" horiz-adv-x="454" d="M52 361 Q52 369 51 379 Q51 388 51 400 Q51 412 50 427 L50 445 L82 460 L90 460 Q90 446 91 432 Q91 420 91.5 406.5 Q92 393 92 382 L92 376 Q128 414 170 437 Q212 460 263 460 Q330 460 371 428 Q412 396 412 343 L412 50 L414 18 L414 0 L369 0 L369 18 L372 50 L372 320 Q372 368 336.5 396.5 Q301 425 241 425 Q192 425 156 407.5 Q120 390 92 361 L92 50 L95 18 L95 0 L50 0 L50 18 L52 50 L52 361 Z " />
<glyph glyph-name="o" unicode="o" horiz-adv-x="527" d="M264 -10 Q216 -10 176.5 7 Q137 24 109 54.5 Q81 85 65.5 128.5 Q50 172 50 225 Q50 278 63.5 321.5 Q77 365 104 395.5 Q131 426 171 443 Q211 460 264 460 Q312 460 351.5 443 Q391 426 418.5 395.5 Q446 365 461.5 321.5 Q477 278 477 225 Q477 172 463.5 128.5 Q450 85 423.5 54.5 Q397 24 357 7 Q317 -10 264 -10 Z M96 225 Q96 177 108.5 137.5 Q121 98 144 70 Q167 42 199 26.5 Q231 11 270 11 Q350 11 390.5 70 Q431 129 431 225 Q431 273 418.5 312.5 Q406 352 383 380 Q360 408 328 423.5 Q296 439 257 439 Q217 439 187 423.5 Q157 408 137 380 Q117 352 106.5 312.5 Q96 273 96 225 Z " />
<glyph glyph-name="p" unicode="p" horiz-adv-x="500" d="M50 -212 L52 -180 L52 361 Q52 369 51 379 Q51 388 51 400 Q51 412 50 427 L50 445 L82 460 L90 460 Q90 448 90 435 Q90 430 90 424 L91 400 Q91 395 91 389 Q127 421 175.5 440.5 Q224 460 269 460 Q310 460 343.5 444.5 Q377 429 400.5 401 Q424 373 437 333.5 Q450 294 450 246 Q450 188 433.5 141 Q417 94 387 60.5 Q357 27 315 8.5 Q273 -10 222 -10 Q182 -10 148 -5 Q114 0 92 9 L92 -180 L95 -212 L95 -230 L50 -230 L50 -212 Z M92 56 Q115 37 154 25.5 Q193 14 235 14 Q275 14 307.5 29.5 Q340 45 363 72.5 Q386 100 398.5 139.5 Q411 179 411 227 Q411 272 399 308.5 Q387 345 364.5 371 Q342 397 310.5 411.5 Q279 426 240 426 Q200 426 160 411.5 Q120 397 92 373 L92 56 Z " />
<glyph glyph-name="q" unicode="q" horiz-adv-x="470" d="M227 -10 Q187 -10 154.5 5 Q122 20 99 47 Q76 74 63 112.5 Q50 151 50 197 Q50 256 66 304.5 Q82 353 112 387.5 Q142 422 183.5 441 Q225 460 276 460 Q310 460 340 456 Q370 452 391 444 L425 460 L428 460 L428 -180 L430 -212 L430 -230 L385 -230 L385 -212 L388 -180 L388 61 Q348 29 304.5 9.5 Q261 -10 227 -10 Z M271 436 Q231 436 197.5 420 Q164 404 140.5 374 Q117 344 104 302.5 Q91 261 91 210 Q91 168 103 133.5 Q115 99 136.5 75 Q158 51 188.5 37.5 Q219 24 256 24 Q285 24 321 39 Q357 54 388 79 L388 399 L389 399 Q368 416 335.5 426 Q303 436 271 436 Z " />
<glyph glyph-name="r" unicode="r" horiz-adv-x="268" d="M184 460 L186 460 Q186 460 185 460 Q194 460 207 457 Q221 454 234 449 Q247 444 256.5 438.5 Q266 433 266 427 Q266 420 263.5 411 Q261 402 257 394 L250 394 Q242 397 235 400 Q221 407 212 410 Q200 415 186 418 Q172 421 160 421 Q147 421 129.5 400.5 Q112 380 91 345 L91 50 L94 18 L94 0 L49 0 L49 18 L51 50 L51 361 Q51 369 50 379 Q50 388 50 400 Q50 412 49 427 L49 445 L81 460 L89 460 Q90 435 91 411 Q92 387 92 362 Q119 407 143 434 Q166 459 185 460 Q185 460 184 460 Z " />
<glyph glyph-name="s" unicode="s" horiz-adv-x="410" d="M61 34 L61 48 L75 48 L87 42 Q109 30 133.5 21 Q158 12 176 9 Q178 9 180 9 Q182 8 187 8 Q192 7 198 7 Q246 7 275.5 33 Q305 59 305 101 Q305 137 275.5 164.5 Q246 192 188 215 Q132 238 104 266 Q76 294 76 336 Q76 392 110 425.5 Q144 459 200 459 Q227 459 261.5 448.5 Q296 438 325 421 L323 397 L214 440 Q209 442 197 441 Q159 441 135 415.5 Q111 390 111 352 Q111 318 137.5 293 Q164 268 218 247 Q279 223 309.5 191.5 Q340 160 340 115 Q340 58 301.5 24 Q263 -10 200 -10 Q168 -10 130 -1 Q92 8 60 23 L61 34 Z " />
<glyph glyph-name="t" unicode="t" horiz-adv-x="309" d="M95 450 L132 545 L135 545 L135 450 L267 450 L267 427 L135 427 L135 99 Q135 64 155.5 42 Q176 20 211 20 Q233 20 251.5 30.5 Q270 41 278 58 L279 54 Q265 25 238.5 7.5 Q212 -10 183 -10 Q143 -10 119 17.5 Q95 45 95 90 L95 427 L18 427 L18 430 L95 450 Z " />
<glyph glyph-name="u" unicode="u" horiz-adv-x="416" d="M26 432 L26 450 L68 450 L68 131 Q68 83 103.5 54.5 Q139 26 197 26 Q233 26 272.5 43.5 Q312 61 348 96 L348 400 L345 432 L345 450 L388 450 L388 50 L391 18 L391 0 L348 0 L348 80 Q302 35 256.5 12.5 Q211 -10 174 -10 Q108 -10 68 22 Q28 54 28 107 L28 400 L26 432 Z " />
<glyph glyph-name="v" unicode="v" horiz-adv-x="423" d="M-15 432 Q-17 437 -18 440 Q-19 443 -20 445 Q-20 448 -21 450 L27 450 Q28 448 29 440.5 Q30 433 32 431 L48 400 Q88 314 128.5 228.5 Q169 143 210 56 L369 431 Q370 432 370.5 435 Q371 438 372 441 Q373 445 374 450 L403 450 Q402 448 402 445 Q401 442 400 439 L201 0 L191 0 L0 405 L-15 432 Z " />
<glyph glyph-name="w" unicode="w" horiz-adv-x="716" d="M12 449 L59 449 Q59 447 60 439.5 Q61 432 62 430 Q62 430 68.5 411 Q75 392 86 361.5 Q97 331 111.5 291.5 Q126 252 141 211 Q156 170 170 131 Q184 92 195 61 L346 450 L360 450 Q399 353 435.5 255.5 Q472 158 510 60 L664 431 Q665 434 665.5 438 Q666 442 668 450 L697 450 Q696 448 696 445 Q695 442 694 439 Q693 436 691 431 L499 0 L488 0 Q450 96 414 191.5 Q378 287 341 384 L187 -1 L174 -1 L12 449 Z " />
<glyph glyph-name="x" unicode="x" horiz-adv-x="432" d="M193 227 L28 448 L75 448 Q78 443 80 439 Q84 431 84 430 L216 255 L342 432 Q344 434 348 441.5 Q352 449 353 451 L381 451 Q347 397 305 345.5 Q263 294 225 243 L408 -2 L360 -2 Q346 27 321 62.5 Q296 98 271 130.5 Q246 163 226 187 Q206 211 201 217 Q196 210 184 193 Q172 176 156 153.5 Q140 131 123 106.5 Q106 82 91.5 60 Q77 38 68 21 Q59 4 59 -2 L29 -2 L33 4 Q35 7 38 11 Q41 15 44 20 L193 227 Z " />
<glyph glyph-name="y" unicode="y" horiz-adv-x="423" d="M222 7 L24 400 Q23 402 19 410.5 Q15 419 10 428 Q5 439 -1 452 L48 452 Q48 450 50 442.5 Q52 435 53 433 L242 56 L394 433 Q395 436 395.5 440 Q396 444 398 452 L424 452 L423 448 Q422 446 421.5 443 Q421 440 419 436 L418 435 Q418 434 417 433 L401 397 Q351 276 302.5 155 Q254 34 205 -88 Q173 -169 139.5 -203.5 Q106 -238 58 -238 Q41 -238 41 -223 L41 -197 Q41 -196 45 -196 L65 -196 Q107 -196 134.5 -170 Q162 -144 187 -81 L222 7 Z " />
<glyph glyph-name="z" unicode="z" horiz-adv-x="444" d="M44 0 L44 9 L296 428 L102 428 L69 424 L52 424 L54 450 L361 450 L343 428 L98 23 L320 23 L353 27 L370 27 L369 0 L44 0 Z " />
<glyph glyph-name="bar" unicode="&#x7c;" horiz-adv-x="213" d="M88 760 L113 760 L113 -260 L88 -260 L88 760 Z " />
<glyph glyph-name="asciitilde" unicode="&#x7e;" horiz-adv-x="340" d="M19 225 Q33 269 52 296.5 Q71 324 113 324 Q127 324 143.5 315 Q160 306 176.5 295 Q193 284 209 275 Q225 266 239 266 Q274 266 288.5 286 Q303 306 314 338 L321 338 Q306 292 287 264 Q268 236 227 236 Q213 236 197 245 Q181 254 164.5 265.5 Q148 277 131.5 286 Q115 295 101 295 Q83 295 71 290 Q59 285 51 276 Q43 267 37 254 Q31 241 26 225 L19 225 Z " />
<glyph glyph-name="exclamdown" unicode="&#xa1;" horiz-adv-x="190" d="M128 430 Q128 416 118.5 408.5 Q109 401 98 401 Q87 401 77.5 408.5 Q68 416 68 430 Q68 445 77.5 452 Q87 459 98 459 Q109 459 118.5 452 Q128 445 128 430 Z M93 320 L103 320 L125 -210 L70 -210 L93 320 Z " />
<glyph glyph-name="guillemotleft" unicode="&#xab;" horiz-adv-x="432" d="M406 425 L412 425 L256 248 L412 70 L406 70 L206 248 L406 425 Z M18 248 L218 425 L224 425 L68 248 L224 70 L218 70 L18 248 Z " />
<glyph glyph-name="acute" unicode="&#xb4;" horiz-adv-x="340" d="M259 707 L299 707 Q297 701 295 696 Q293 687 285 676 L178 530 L172 530 L259 707 Z " />
<glyph glyph-name="middot" unicode="&#xb7;" horiz-adv-x="190" d="M65 240 Q65 255 74.5 262 Q84 269 95 269 Q106 269 115.5 262 Q125 255 125 240 Q125 226 115.5 218.5 Q106 211 95 211 Q84 211 74.5 218.5 Q65 226 65 240 Z " />
<glyph glyph-name="guillemotright" unicode="&#xbb;" horiz-adv-x="406" d="M194 425 L386 248 L194 70 L188 70 L336 248 L188 425 L194 425 Z M20 425 L26 425 L218 248 L26 70 L20 70 L168 248 L20 425 Z " />
<glyph glyph-name="questiondown" unicode="&#xbf;" horiz-adv-x="467" d="M247 425 Q247 440 256.5 447 Q266 454 277 454 Q288 454 297.5 447 Q307 440 307 425 Q307 411 297.5 403.5 Q288 396 277 396 Q266 396 256.5 403.5 Q247 411 247 425 Z M225 -220 Q147 -220 100.5 -175.5 Q54 -131 54 -57 Q54 -20 69 13 Q84 46 111.5 72 Q139 98 177.5 116.5 Q216 135 264 143 Q265 170 266 201 Q267 232 269 259 Q270 290 272 320 L282 320 Q286 277 289 237 Q291 202 293 165.5 Q295 129 295 105 Q252 101 216 87 Q180 73 154.5 51.5 Q129 30 115 2.5 Q101 -25 101 -57 Q101 -121 139.5 -159.5 Q178 -198 242 -198 Q306 -198 344.5 -161 Q383 -124 383 -63 L383 -39 L408 -39 Q426 -39 426 -59 Q426 -95 411.5 -125 Q397 -155 371 -176 Q345 -197 307.5 -208.5 Q270 -220 225 -220 Z " />
<glyph glyph-name="Agrave" unicode="&#xc0;" horiz-adv-x="649" d="M232 864 L319 705 L313 705 L206 836 Q203 840 200.5 844.5 Q198 849 196 854 Q194 859 192 864 L232 864 Z M607 17 Q611 14 611 7 Q612 4 612 1 L561 1 Q560 6 559.5 10.5 Q559 15 557 20 L460 254 L170 254 Q151 210 133 166 L110 107 Q92 63 73 19 Q72 18 70 11.5 Q68 5 68 3 Q68 1 69 1 L31 1 L33 7 Q34 10 34.5 13.5 Q35 17 36 19 L52 51 Q67 86 90.5 142 Q114 198 145.5 273 Q177 348 215.5 440 Q254 532 298 638 L298 639 L310 666 L332 666 L594 45 L607 17 Z M313 601 Q275 510 241.5 430 Q208 350 180 282 L447 282 L313 601 Z " />
<glyph glyph-name="Aacute" unicode="&#xc1;" horiz-adv-x="649" d="M316 705 L403 864 L443 864 Q441 859 439 854 Q436 845 429 836 L322 705 L316 705 Z M607 17 Q611 14 611 7 Q612 4 612 1 L561 1 Q560 6 559.5 10.5 Q559 15 557 20 L460 254 L170 254 Q151 210 133 166 L110 107 Q92 63 73 19 Q72 18 70 11.5 Q68 5 68 3 Q68 1 69 1 L31 1 L33 7 Q34 10 34.5 13.5 Q35 17 36 19 L52 51 Q67 86 90.5 142 Q114 198 145.5 273 Q177 348 215.5 440 Q254 532 298 638 L298 639 L310 666 L332 666 L594 45 L607 17 Z M313 601 Q275 510 241.5 430 Q208 350 180 282 L447 282 L313 601 Z " />
<glyph glyph-name="Acircumflex" unicode="&#xc2;" horiz-adv-x="649" d="M311 865 L326 865 L454 707 L449 707 L319 822 L193 706 L187 706 L310 862 L311 865 Z M456 706 L455 707 L456 707 L456 706 Z M561 1 Q560 6 559.5 10.5 Q559 15 557 20 L460 254 L170 254 Q151 210 133 166 L110 107 Q92 63 73 19 Q72 18 70 11.5 Q68 5 68 3 Q68 1 69 1 L31 1 L33 7 Q34 10 34.5 13.5 Q35 17 36 19 L52 51 Q67 86 90.5 142 Q114 198 145.5 273 Q177 348 215.5 440 Q254 532 298 638 L298 639 L310 666 L332 666 L594 45 L607 17 Q611 14 611 7 Q612 4 612 1 L561 1 Z M313 601 Q275 510 241.5 430 Q208 350 180 282 L447 282 L313 601 Z " />
<glyph glyph-name="Atilde" unicode="&#xc3;" horiz-adv-x="649" d="M174 728 Q188 768 207 792.5 Q226 817 268 817 Q282 817 298 809 Q310 803 322 796 L339 786 Q351 779 363 773 Q379 765 393 765 Q428 765 443 782.5 Q458 800 469 829 L475 829 Q468 808 460 791 Q452 774 441.5 762 Q431 750 416.5 743.5 Q402 737 381 737 Q367 737 351 746 Q343 750 335 754 L302 773 Q294 777 286 782 Q270 790 256 790 Q238 790 226 785.5 Q214 781 205.5 773 Q197 765 191 753.5 Q185 742 180 728 L174 728 Z M561 1 Q560 6 559.5 10.5 Q559 15 557 20 L460 254 L170 254 Q151 210 133 166 L110 107 Q92 63 73 19 Q72 18 70 11.5 Q68 5 68 3 Q68 1 69 1 L31 1 L33 7 Q34 10 34.5 13.5 Q35 17 36 19 L52 51 Q67 86 90.5 142 Q114 198 145.5 273 Q177 348 215.5 440 Q254 532 298 638 L298 639 L310 666 L332 666 L594 45 L607 17 Q611 14 611 7 Q612 4 612 1 L561 1 Z M447 282 L313 601 Q275 510 241.5 430 Q208 350 180 282 L447 282 Z " />
<glyph glyph-name="Adieresis" unicode="&#xc4;" horiz-adv-x="649" d="M365 760 Q365 773 373 779 Q381 785 390 785 Q400 785 407.5 779 Q415 773 415 760 Q415 748 407.5 741.5 Q400 735 390 735 Q381 735 373 741.5 Q365 748 365 760 Z M225 760 Q225 773 233 779 Q241 785 250 785 Q260 785 267.5 779 Q275 773 275 760 Q275 748 267.5 741.5 Q260 735 250 735 Q241 735 233 741.5 Q225 748 225 760 Z M607 17 Q611 14 611 7 Q612 4 612 1 L561 1 Q560 6 559.5 10.5 Q559 15 557 20 L460 254 L170 254 Q151 210 133 166 L110 107 Q92 63 73 19 Q72 18 70 11.5 Q68 5 68 3 Q68 1 69 1 L31 1 L33 7 Q34 10 34.5 13.5 Q35 17 36 19 L52 51 Q67 86 90.5 142 Q114 198 145.5 273 Q177 348 215.5 440 Q254 532 298 638 L298 639 L310 666 L332 666 L594 45 L607 17 Z M447 282 L313 601 Q275 510 241.5 430 Q208 350 180 282 L447 282 Z " />
<glyph glyph-name="Aring" unicode="&#xc5;" horiz-adv-x="649" d="M320 710 Q304 710 289.5 716 Q275 722 264 732.5 Q253 743 246.5 757 Q240 771 240 787 Q240 822 262 842.5 Q284 863 320 863 Q355 863 377 842.5 Q399 822 399 788 Q399 772 392.5 758 Q386 744 375.5 733.5 Q365 723 350.5 716.5 Q336 710 320 710 Z M318 851 Q294 851 279.5 834.5 Q265 818 265 790 Q265 762 282 742 Q299 722 322 722 Q343 722 358.5 740.5 Q374 759 374 784 Q374 814 359 832.5 Q344 851 318 851 Z M561 1 Q560 6 559.5 10.5 Q559 15 557 20 L460 254 L170 254 Q151 210 133 166 L110 107 Q92 63 73 19 Q72 18 70 11.5 Q68 5 68 3 Q68 1 69 1 L31 1 L33 7 Q34 10 34.5 13.5 Q35 17 36 19 L52 51 Q67 86 90.5 142 Q114 198 145.5 273 Q177 348 215.5 440 Q254 532 298 638 L298 639 L310 666 L332 666 L594 45 L607 17 Q611 14 611 7 Q612 4 612 1 L561 1 Z M313 601 Q275 510 241.5 430 Q208 350 180 282 L447 282 L313 601 Z " />
<glyph glyph-name="Ccedilla" unicode="&#xc7;" horiz-adv-x="712" d="M623 78 L621 45 Q605 34 582 24.5 Q559 15 531 8.5 Q503 2 472 -2 Q441 -6 409 -7 L364 -105 Q409 -120 435 -139.5 Q461 -159 461 -176 Q461 -204 444 -220.5 Q427 -237 399 -237 Q376 -237 353 -230 Q330 -223 315 -212 L315 -207 Q325 -215 346 -219 Q367 -223 392 -223 Q410 -223 421 -212 Q432 -201 432 -184 Q432 -174 409.5 -160.5 Q387 -147 350 -135 L335 -128 L391 -7 Q318 -6 258.5 17.5 Q199 41 156.5 83.5 Q114 126 91 185 Q68 244 68 316 Q68 396 92.5 462 Q117 528 162 574.5 Q207 621 270 646.5 Q333 672 410 672 Q443 672 473.5 668.5 Q504 665 531 658.5 Q558 652 579 643 Q600 634 613 623 L614 590 Q609 590 605.5 589.5 Q602 589 598 589 Q573 604 552 615 Q531 626 510.5 633 Q490 640 466.5 643 Q443 646 411 646 Q344 646 289.5 623.5 Q235 601 196 559.5 Q157 518 136 459.5 Q115 401 115 330 Q115 260 135.5 202 Q156 144 193 102.5 Q230 61 282 38.5 Q334 16 397 16 Q435 16 474.5 23 Q514 30 548 43 Q563 51 576 58 Q587 64 596.5 69 Q606 74 608 75 L623 78 Z " />
<glyph glyph-name="Egrave" unicode="&#xc8;" horiz-adv-x="573" d="M176 864 L263 705 L257 705 L150 836 Q147 840 144.5 844.5 Q142 849 140 854 Q138 859 136 864 L176 864 Z M68 605 L65 641 L65 660 L478 660 L478 629 L461 629 Q420 632 377 633 Q334 634 289 634 Q244 634 200.5 633.5 Q157 633 113 633 L113 354 L328 354 Q360 357 392 357 L392 323 L369 323 Q339 325 307 326 Q275 327 243 327 Q227 327 211 327 L145 326 Q129 326 113 326 L113 28 L428 28 L486 33 L503 33 L503 0 L65 0 L65 19 L68 55 L68 605 Z " />
<glyph glyph-name="Eacute" unicode="&#xc9;" horiz-adv-x="573" d="M260 705 L347 864 L387 864 Q385 859 383 854 Q380 845 373 836 L266 705 L260 705 Z M68 605 L65 641 L65 660 L478 660 L478 629 L461 629 Q420 632 377 633 Q334 634 289 634 Q244 634 200.5 633.5 Q157 633 113 633 L113 354 L328 354 Q360 357 392 357 L392 323 L369 323 Q339 325 307 326 Q275 327 243 327 Q227 327 211 327 L145 326 Q129 326 113 326 L113 28 L428 28 L486 33 L503 33 L503 0 L65 0 L65 19 L68 55 L68 605 Z " />
<glyph glyph-name="Ecircumflex" unicode="&#xca;" horiz-adv-x="573" d="M266 865 L394 707 L395 707 L395 706 L394 707 L389 707 L259 822 L133 706 L127 706 L250 862 L251 865 L266 865 Z M461 629 Q420 632 377 633 Q334 634 289 634 Q244 634 200.5 633.5 Q157 633 113 633 L113 354 L328 354 Q360 357 392 357 L392 323 L369 323 Q339 325 307 326 Q275 327 243 327 Q227 327 211 327 L145 326 Q129 326 113 326 L113 28 L428 28 L486 33 L503 33 L503 0 L65 0 L65 19 L68 55 L68 605 L65 641 L65 660 L478 660 L478 629 L461 629 Z " />
<glyph glyph-name="Edieresis" unicode="&#xcb;" horiz-adv-x="573" d="M303 760 Q303 773 311 779 Q319 785 328 785 Q338 785 345.5 779 Q353 773 353 760 Q353 748 345.5 741.5 Q338 735 328 735 Q319 735 311 741.5 Q303 748 303 760 Z M163 760 Q163 773 171 779 Q179 785 188 785 Q198 785 205.5 779 Q213 773 213 760 Q213 748 205.5 741.5 Q198 735 188 735 Q179 735 171 741.5 Q163 748 163 760 Z M65 19 L68 55 L68 605 L65 641 L65 660 L478 660 L478 629 L461 629 Q420 632 377 633 Q334 634 289 634 Q244 634 200.5 633.5 Q157 633 113 633 L113 354 L328 354 Q360 357 392 357 L392 323 L369 323 Q339 325 307 326 Q275 327 243 327 Q227 327 211 327 L145 326 Q129 326 113 326 L113 28 L428 28 L486 33 L503 33 L503 0 L65 0 L65 19 Z " />
<glyph glyph-name="Igrave" unicode="&#xcc;" horiz-adv-x="190" d="M-13 836 Q-20 845 -23 854 Q-25 859 -27 864 L13 864 L100 705 L94 705 L-13 836 Z M70 660 L121 660 L121 641 L118 605 L118 55 L121 19 L121 0 L70 0 L70 19 L73 55 L73 605 L70 641 L70 660 Z " />
<glyph glyph-name="Iacute" unicode="&#xcd;" horiz-adv-x="190" d="M97 705 L184 864 L224 864 Q222 859 220 854 Q217 845 210 836 L103 705 L97 705 Z M70 641 L70 660 L121 660 L121 641 L118 605 L118 55 L121 19 L121 0 L70 0 L70 19 L73 55 L73 605 L70 641 Z " />
<glyph glyph-name="Icircumflex" unicode="&#xce;" horiz-adv-x="190" d="M103 865 L231 707 L232 707 L232 706 L231 707 L226 707 L96 822 L-30 706 L-36 706 L87 862 L88 865 L103 865 Z M70 19 L73 55 L73 605 L70 641 L70 660 L121 660 L121 641 L118 605 L118 55 L121 19 L121 0 L70 0 L70 19 Z " />
<glyph glyph-name="Idieresis" unicode="&#xcf;" horiz-adv-x="190" d="M190 760 Q190 748 182.5 741.5 Q175 735 165 735 Q156 735 148 741.5 Q140 748 140 760 Q140 773 148 779 Q156 785 165 785 Q175 785 182.5 779 Q190 773 190 760 Z M50 760 Q50 748 42.5 741.5 Q35 735 25 735 Q16 735 8 741.5 Q0 748 0 760 Q0 773 8 779 Q16 785 25 785 Q35 785 42.5 779 Q50 773 50 760 Z M70 660 L121 660 L121 641 L118 605 L118 55 L121 19 L121 0 L70 0 L70 19 L73 55 L73 605 L70 641 L70 660 Z " />
<glyph glyph-name="Ntilde" unicode="&#xd1;" horiz-adv-x="643" d="M188 728 Q202 768 221 792.5 Q240 817 282 817 Q296 817 312.5 809 Q329 801 345.5 791 Q362 781 378 773 Q394 765 408 765 Q443 765 457.5 782.5 Q472 800 483 829 L490 829 Q483 808 475 791 Q467 774 456.5 762 Q446 750 431.5 743.5 Q417 737 396 737 Q382 737 366 745.5 Q350 754 333.5 763.5 Q317 773 300.5 781.5 Q284 790 270 790 Q252 790 240 785.5 Q228 781 220 773 Q212 765 206 753.5 Q200 742 195 728 L188 728 Z M566 -5 Q449 143 334 289.5 Q219 436 102 585 L102 55 L106 19 L106 0 L64 0 L64 19 L67 55 L67 605 L64 641 L64 660 L102 660 L546 93 L546 605 L542 641 L542 660 L584 660 L584 641 L581 605 L581 -5 L566 -5 Z " />
<glyph glyph-name="Ograve" unicode="&#xd2;" horiz-adv-x="795" d="M300 864 L387 705 L381 705 L274 836 Q271 840 268.5 844.5 Q266 849 264 854 Q262 859 260 864 L300 864 Z M70 333 Q70 409 93.5 471 Q117 533 160 577.5 Q203 622 263.5 646 Q324 670 398 670 Q472 670 532 645.5 Q592 621 635 576 Q678 531 701.5 468 Q725 405 725 328 Q725 252 701.5 189.5 Q678 127 635 83 Q592 39 532 14.5 Q472 -10 398 -10 Q324 -10 263.5 14.5 Q203 39 160 84 Q117 129 93.5 192.5 Q70 256 70 333 Z M118 350 Q118 275 139 213 Q160 151 198 107 Q236 63 289.5 39 Q343 15 408 15 Q468 15 518 36 Q568 57 603 96 Q638 135 657.5 189.5 Q677 244 677 311 Q677 386 656.5 448 Q636 510 598 554 Q560 598 507 622 Q454 646 389 646 Q328 646 278 625 Q228 604 192.5 565 Q157 526 137.5 471.5 Q118 417 118 350 Z " />
<glyph glyph-name="Oacute" unicode="&#xd3;" horiz-adv-x="795" d="M471 864 L511 864 Q509 859 507 854 Q504 845 497 836 L390 705 L384 705 L471 864 Z M70 333 Q70 409 93.5 471 Q117 533 160 577.5 Q203 622 263.5 646 Q324 670 398 670 Q472 670 532 645.5 Q592 621 635 576 Q678 531 701.5 468 Q725 405 725 328 Q725 252 701.5 189.5 Q678 127 635 83 Q592 39 532 14.5 Q472 -10 398 -10 Q324 -10 263.5 14.5 Q203 39 160 84 Q117 129 93.5 192.5 Q70 256 70 333 Z M118 350 Q118 275 139 213 Q160 151 198 107 Q236 63 289.5 39 Q343 15 408 15 Q468 15 518 36 Q568 57 603 96 Q638 135 657.5 189.5 Q677 244 677 311 Q677 386 656.5 448 Q636 510 598 554 Q560 598 507 622 Q454 646 389 646 Q328 646 278 625 Q228 604 192.5 565 Q157 526 137.5 471.5 Q118 417 118 350 Z " />
<glyph glyph-name="Ocircumflex" unicode="&#xd4;" horiz-adv-x="795" d="M375 865 L390 865 L518 707 L519 707 L519 706 L518 707 L513 707 L383 822 L257 706 L251 706 L375 865 Z M70 333 Q70 409 93.5 471 Q117 533 160 577.5 Q203 622 263.5 646 Q324 670 398 670 Q472 670 532 645.5 Q592 621 635 576 Q678 531 701.5 468 Q725 405 725 328 Q725 252 701.5 189.5 Q678 127 635 83 Q592 39 532 14.5 Q472 -10 398 -10 Q324 -10 263.5 14.5 Q203 39 160 84 Q117 129 93.5 192.5 Q70 256 70 333 Z M118 350 Q118 275 139 213 Q160 151 198 107 Q236 63 289.5 39 Q343 15 408 15 Q468 15 518 36 Q568 57 603 96 Q638 135 657.5 189.5 Q677 244 677 311 Q677 386 656.5 448 Q636 510 598 554 Q560 598 507 622 Q454 646 389 646 Q328 646 278 625 Q228 604 192.5 565 Q157 526 137.5 471.5 Q118 417 118 350 Z " />
<glyph glyph-name="Otilde" unicode="&#xd5;" horiz-adv-x="795" d="M232 728 Q246 768 265 792.5 Q284 817 326 817 Q340 817 356 809 Q368 803 380 796 L397 786 Q409 779 421 773 Q437 765 451 765 Q486 765 501 782.5 Q516 800 527 829 L533 829 Q526 808 518 791 Q510 774 499.5 762 Q489 750 474.5 743.5 Q460 737 439 737 Q425 737 409 746 Q401 750 393 754 L360 773 Q352 777 344 782 Q328 790 314 790 Q296 790 284 785.5 Q272 781 263.5 773 Q255 765 249 753.5 Q243 742 238 728 L232 728 Z M70 333 Q70 409 93.5 471 Q117 533 160 577.5 Q203 622 263.5 646 Q324 670 398 670 Q472 670 532 645.5 Q592 621 635 576 Q678 531 701.5 468 Q725 405 725 328 Q725 252 701.5 189.5 Q678 127 635 83 Q592 39 532 14.5 Q472 -10 398 -10 Q324 -10 263.5 14.5 Q203 39 160 84 Q117 129 93.5 192.5 Q70 256 70 333 Z M118 350 Q118 275 139 213 Q160 151 198 107 Q236 63 289.5 39 Q343 15 408 15 Q468 15 518 36 Q568 57 603 96 Q638 135 657.5 189.5 Q677 244 677 311 Q677 386 656.5 448 Q636 510 598 554 Q560 598 507 622 Q454 646 389 646 Q328 646 278 625 Q228 604 192.5 565 Q157 526 137.5 471.5 Q118 417 118 350 Z " />
<glyph glyph-name="Odieresis" unicode="&#xd6;" horiz-adv-x="795" d="M478 760 Q478 748 470.5 741.5 Q463 735 453 735 Q444 735 436 741.5 Q428 748 428 760 Q428 773 436 779 Q444 785 453 785 Q463 785 470.5 779 Q478 773 478 760 Z M288 760 Q288 773 296 779 Q304 785 313 785 Q323 785 330.5 779 Q338 773 338 760 Q338 748 330.5 741.5 Q323 735 313 735 Q304 735 296 741.5 Q288 748 288 760 Z M398 -10 Q324 -10 263.5 14.5 Q203 39 160 84 Q117 129 93.5 192.5 Q70 256 70 333 Q70 409 93.5 471 Q117 533 160 577.5 Q203 622 263.5 646 Q324 670 398 670 Q472 670 532 645.5 Q592 621 635 576 Q678 531 701.5 468 Q725 405 725 328 Q725 252 701.5 189.5 Q678 127 635 83 Q592 39 532 14.5 Q472 -10 398 -10 Z M389 646 Q328 646 278 625 Q228 604 192.5 565 Q157 526 137.5 471.5 Q118 417 118 350 Q118 275 139 213 Q160 151 198 107 Q236 63 289.5 39 Q343 15 408 15 Q468 15 518 36 Q568 57 603 96 Q638 135 657.5 189.5 Q677 244 677 311 Q677 386 656.5 448 Q636 510 598 554 Q560 598 507 622 Q454 646 389 646 Z " />
<glyph glyph-name="Oslash" unicode="&#xd8;" horiz-adv-x="795" d="M70 332 Q70 408 93.5 470 Q117 532 160 576.5 Q203 621 263.5 645 Q324 669 398 669 Q465 669 521 649 Q577 629 619 591 L691 670 L725 670 L637 574 Q679 529 702 466.5 Q725 404 725 328 Q725 252 701.5 189.5 Q678 127 635 83 Q592 39 532 14.5 Q472 -10 398 -10 Q331 -10 275 10 Q219 30 177 68 L105 -10 L70 -10 L158 86 Q116 131 93 193.5 Q70 256 70 332 Z M388 645 Q327 645 277 624 Q227 603 191.5 564 Q156 525 136.5 470.5 Q117 416 117 349 Q117 278 135 220 Q153 162 187 118 L591 560 Q553 601 502 623 Q451 645 388 645 Z M204 98 Q242 57 293 35 Q344 13 407 13 Q467 13 517 34 Q567 55 602 94 Q637 133 656.5 187.5 Q676 242 676 309 Q676 380 658 438 Q640 496 607 540 L204 98 Z " />
<glyph glyph-name="Ugrave" unicode="&#xd9;" horiz-adv-x="658" d="M237 836 Q234 840 231.5 844.5 Q229 849 227 854 Q225 859 223 864 L263 864 L350 705 L344 705 L237 836 Z M79 605 L76 641 L76 660 L127 660 L127 641 L124 605 L124 242 Q124 192 140 151 Q156 110 185.5 80.5 Q215 51 256.5 35 Q298 19 349 19 Q396 19 434 33.5 Q472 48 499 75 Q526 102 541 139.5 Q556 177 556 223 L556 605 L552 641 L552 660 L594 660 L594 641 L591 605 L591 234 Q591 179 572.5 134 Q554 89 520.5 57 Q487 25 440 7.5 Q393 -10 335 -10 Q277 -10 230 7.5 Q183 25 149.5 57 Q116 89 97.5 134 Q79 179 79 234 L79 605 Z " />
<glyph glyph-name="Uacute" unicode="&#xda;" horiz-adv-x="658" d="M337 705 L424 864 L464 864 Q462 859 460 854 Q457 845 450 836 L343 705 L337 705 Z M79 605 L76 641 L76 660 L127 660 L127 641 L124 605 L124 242 Q124 192 140 151 Q156 110 185.5 80.5 Q215 51 256.5 35 Q298 19 349 19 Q396 19 434 33.5 Q472 48 499 75 Q526 102 541 139.5 Q556 177 556 223 L556 605 L552 641 L552 660 L594 660 L594 641 L591 605 L591 234 Q591 179 572.5 134 Q554 89 520.5 57 Q487 25 440 7.5 Q393 -10 335 -10 Q277 -10 230 7.5 Q183 25 149.5 57 Q116 89 97.5 134 Q79 179 79 234 L79 605 Z " />
<glyph glyph-name="Ucircumflex" unicode="&#xdb;" horiz-adv-x="658" d="M338 865 L353 865 L481 707 L482 707 L482 706 L481 707 L476 707 L346 822 L220 706 L214 706 L338 865 Z M556 605 L552 641 L552 660 L594 660 L594 641 L591 605 L591 234 Q591 179 572.5 134 Q554 89 520.5 57 Q487 25 440 7.5 Q393 -10 335 -10 Q277 -10 230 7.5 Q183 25 149.5 57 Q116 89 97.5 134 Q79 179 79 234 L79 605 L76 641 L76 660 L127 660 L127 641 L124 605 L124 242 Q124 192 140 151 Q156 110 185.5 80.5 Q215 51 256.5 35 Q298 19 349 19 Q396 19 434 33.5 Q472 48 499 75 Q526 102 541 139.5 Q556 177 556 223 L556 605 Z " />
<glyph glyph-name="Udieresis" unicode="&#xdc;" horiz-adv-x="658" d="M390 760 Q390 773 398 779 Q406 785 415 785 Q425 785 432.5 779 Q440 773 440 760 Q440 748 432.5 741.5 Q425 735 415 735 Q406 735 398 741.5 Q390 748 390 760 Z M250 760 Q250 773 258 779 Q266 785 275 785 Q285 785 292.5 779 Q300 773 300 760 Q300 748 292.5 741.5 Q285 735 275 735 Q266 735 258 741.5 Q250 748 250 760 Z M76 641 L76 660 L127 660 L127 641 L124 605 L124 242 Q124 192 140 151 Q156 110 185.5 80.5 Q215 51 256.5 35 Q298 19 349 19 Q396 19 434 33.5 Q472 48 499 75 Q526 102 541 139.5 Q556 177 556 223 L556 605 L552 641 L552 660 L594 660 L594 641 L591 605 L591 234 Q591 179 572.5 134 Q554 89 520.5 57 Q487 25 440 7.5 Q393 -10 335 -10 Q277 -10 230 7.5 Q183 25 149.5 57 Q116 89 97.5 134 Q79 179 79 234 L79 605 L76 641 Z " />
<glyph glyph-name="Yacute" unicode="&#xdd;" horiz-adv-x="656" d="M416 864 L456 864 Q454 859 452 854 Q449 845 442 836 L335 705 L329 705 L416 864 Z M312 1 L312 20 L315 56 L315 303 L35 660 L89 660 L94 651 Q96 648 97.5 645 Q99 642 99 641 Q162 563 223 486 Q284 409 346 331 L551 611 Q562 625 565.5 630 Q569 635 570.5 637 Q572 639 573 641 Q574 643 578 650 L583 660 L621 660 Q620 658 618 656 Q617 654 615.5 652 Q614 650 612 646 L592 620 Q533 541 475.5 462 Q418 383 360 304 L360 56 L363 20 L363 1 L312 1 Z " />
<glyph glyph-name="agrave" unicode="&#xe0;" horiz-adv-x="480" d="M129 676 Q126 681 123.5 686 Q121 691 119 696 Q117 701 115 707 L155 707 L242 530 L236 530 L129 676 Z M374 70 Q374 47 389 33 Q404 19 428 19 Q443 19 454.5 26 Q466 33 471 45 L472 42 Q463 19 444 4.5 Q425 -10 403 -10 Q374 -10 355.5 9.5 Q337 29 334 61 Q305 26 262 8 Q219 -10 171 -10 Q120 -10 88.5 16 Q57 42 57 85 Q57 138 126.5 183.5 Q196 229 333 258 L333 337 Q333 382 305.5 409.5 Q278 437 224 437 Q200 437 179.5 429 Q159 421 143.5 407.5 Q128 394 119.5 375.5 Q111 357 111 335 L112 323 Q112 318 107 318 L81 318 Q71 318 71 332 Q71 359 83.5 382.5 Q96 406 118.5 423.5 Q141 441 171.5 450.5 Q202 460 238 460 Q306 460 340 429.5 Q374 399 374 348 L374 70 Z M334 239 Q216 215 156.5 177 Q97 139 97 95 Q97 62 123.5 41.5 Q150 21 194 21 Q237 21 274 34.5 Q311 48 334 74 L334 239 Z " />
<glyph glyph-name="aacute" unicode="&#xe1;" horiz-adv-x="480" d="M239 530 L326 707 L366 707 Q364 701 362 696 Q360 687 352 676 L245 530 L239 530 Z M374 70 Q374 47 389 33 Q404 19 428 19 Q443 19 454.5 26 Q466 33 471 45 L472 42 Q463 19 444 4.5 Q425 -10 403 -10 Q374 -10 355.5 9.5 Q337 29 334 61 Q305 26 262 8 Q219 -10 171 -10 Q120 -10 88.5 16 Q57 42 57 85 Q57 138 126.5 183.5 Q196 229 333 258 L333 337 Q333 382 305.5 409.5 Q278 437 224 437 Q200 437 179.5 429 Q159 421 143.5 407.5 Q128 394 119.5 375.5 Q111 357 111 335 L112 323 Q112 318 107 318 L81 318 Q71 318 71 332 Q71 359 83.5 382.5 Q96 406 118.5 423.5 Q141 441 171.5 450.5 Q202 460 238 460 Q306 460 340 429.5 Q374 399 374 348 L374 70 Z M97 95 Q97 62 123.5 41.5 Q150 21 194 21 Q237 21 274 34.5 Q311 48 334 74 L334 239 Q216 215 156.5 177 Q97 139 97 95 Z " />
<glyph glyph-name="acircumflex" unicode="&#xe2;" horiz-adv-x="480" d="M106 530 L230 705 L245 705 L374 530 L368 530 L238 658 L112 530 L106 530 Z M374 70 Q374 47 389 33 Q404 19 428 19 Q443 19 454.5 26 Q466 33 471 45 L472 42 Q463 19 444 4.5 Q425 -10 403 -10 Q374 -10 355.5 9.5 Q337 29 334 61 Q305 26 262 8 Q219 -10 171 -10 Q120 -10 88.5 16 Q57 42 57 85 Q57 138 126.5 183.5 Q196 229 333 258 L333 337 Q333 382 305.5 409.5 Q278 437 224 437 Q200 437 179.5 429 Q159 421 143.5 407.5 Q128 394 119.5 375.5 Q111 357 111 335 L112 323 Q112 318 107 318 L81 318 Q71 318 71 332 Q71 359 83.5 382.5 Q96 406 118.5 423.5 Q141 441 171.5 450.5 Q202 460 238 460 Q306 460 340 429.5 Q374 399 374 348 L374 70 Z M97 95 Q97 62 123.5 41.5 Q150 21 194 21 Q237 21 274 34.5 Q311 48 334 74 L334 239 Q216 215 156.5 177 Q97 139 97 95 Z " />
<glyph glyph-name="atilde" unicode="&#xe3;" horiz-adv-x="480" d="M71 555 Q85 599 104 626.5 Q123 654 165 654 Q179 654 195.5 645 Q212 636 228.5 625 Q245 614 261 605 Q277 596 291 596 Q326 596 340.5 616 Q355 636 366 668 L373 668 Q358 622 339 594 Q320 566 279 566 Q265 566 249 575 Q233 584 216.5 595.5 Q200 607 183.5 616 Q167 625 153 625 Q135 625 123 620 Q111 615 103 606 Q95 597 89 584 Q83 571 78 555 L71 555 Z M374 70 Q374 47 389 33 Q404 19 428 19 Q443 19 454.5 26 Q466 33 471 45 L472 42 Q463 19 444 4.5 Q425 -10 403 -10 Q374 -10 355.5 9.5 Q337 29 334 61 Q305 26 262 8 Q219 -10 171 -10 Q120 -10 88.5 16 Q57 42 57 85 Q57 138 126.5 183.5 Q196 229 333 258 L333 337 Q333 382 305.5 409.5 Q278 437 224 437 Q200 437 179.5 429 Q159 421 143.5 407.5 Q128 394 119.5 375.5 Q111 357 111 335 Q111 333 111 332 L112 327 Q112 325 112 323 Q112 318 107 318 L81 318 Q71 318 71 332 Q71 359 83.5 382.5 Q96 406 118.5 423.5 Q141 441 171.5 450.5 Q202 460 238 460 Q306 460 340 429.5 Q374 399 374 348 L374 70 Z M97 95 Q97 62 123.5 41.5 Q150 21 194 21 Q237 21 274 34.5 Q311 48 334 74 L334 239 Q216 215 156.5 177 Q97 139 97 95 Z " />
<glyph glyph-name="adieresis" unicode="&#xe4;" horiz-adv-x="480" d="M267 595 Q267 608 275 614 Q283 620 292 620 Q302 620 309.5 614 Q317 608 317 595 Q317 583 309.5 576.5 Q302 570 292 570 Q283 570 275 576.5 Q267 583 267 595 Z M127 595 Q127 608 135 614 Q143 620 152 620 Q162 620 169.5 614 Q177 608 177 595 Q177 583 169.5 576.5 Q162 570 152 570 Q143 570 135 576.5 Q127 583 127 595 Z M112 323 Q112 318 107 318 L81 318 Q71 318 71 332 Q71 359 83.5 382.5 Q96 406 118.5 423.5 Q141 441 171.5 450.5 Q202 460 238 460 Q306 460 340 429.5 Q374 399 374 348 L374 70 Q374 47 389 33 Q404 19 428 19 Q443 19 454.5 26 Q466 33 471 45 L472 42 Q463 19 444 4.5 Q425 -10 403 -10 Q374 -10 355.5 9.5 Q337 29 334 61 Q305 26 262 8 Q219 -10 171 -10 Q120 -10 88.5 16 Q57 42 57 85 Q57 138 126.5 183.5 Q196 229 333 258 L333 337 Q333 382 305.5 409.5 Q278 437 224 437 Q200 437 179.5 429 Q159 421 143.5 407.5 Q128 394 119.5 375.5 Q111 357 111 335 L112 323 Z M194 21 Q237 21 274 34.5 Q311 48 334 74 L334 239 Q216 215 156.5 177 Q97 139 97 95 Q97 62 123.5 41.5 Q150 21 194 21 Z " />
<glyph glyph-name="aring" unicode="&#xe5;" horiz-adv-x="480" d="M227 535 Q211 535 196.5 541 Q182 547 171.5 557.5 Q161 568 154.5 582 Q148 596 148 612 Q148 647 170 667.5 Q192 688 227 688 Q262 688 284 667.5 Q306 647 306 613 Q306 597 299.5 583 Q293 569 282.5 558.5 Q272 548 257.5 541.5 Q243 535 227 535 Z M173 615 Q173 587 189.5 567 Q206 547 229 547 Q251 547 266.5 565.5 Q282 584 282 609 Q282 639 267 657.5 Q252 676 226 676 Q202 676 187.5 659.5 Q173 643 173 615 Z M374 70 Q374 47 389 33 Q404 19 428 19 Q443 19 454.5 26 Q466 33 471 45 L472 42 Q463 19 444 4.5 Q425 -10 403 -10 Q374 -10 355.5 9.5 Q337 29 334 61 Q305 26 262 8 Q219 -10 171 -10 Q120 -10 88.5 16 Q57 42 57 85 Q57 138 126.5 183.5 Q196 229 333 258 L333 337 Q333 382 305.5 409.5 Q278 437 224 437 Q200 437 179.5 429 Q159 421 143.5 407.5 Q128 394 119.5 375.5 Q111 357 111 335 L112 323 Q112 318 107 318 L81 318 Q71 318 71 332 Q71 359 83.5 382.5 Q96 406 118.5 423.5 Q141 441 171.5 450.5 Q202 460 238 460 Q306 460 340 429.5 Q374 399 374 348 L374 70 Z M97 95 Q97 62 123.5 41.5 Q150 21 194 21 Q237 21 274 34.5 Q311 48 334 74 L334 239 Q216 215 156.5 177 Q97 139 97 95 Z " />
<glyph glyph-name="ccedilla" unicode="&#xe7;" horiz-adv-x="477" d="M432 381 L402 353 L376 388 Q359 411 328 425 Q297 439 264 439 Q225 439 193 424.5 Q161 410 138 383 Q115 356 102.5 318 Q90 280 90 233 Q90 187 104 149 Q118 111 143 84 Q168 57 203.5 42 Q239 27 282 27 Q317 27 357.5 47 Q398 67 429 100 L433 102 L433 98 Q409 53 365.5 24.5 Q322 -4 273 -8 Q270 -14 258 -40.5 Q246 -67 228 -107 Q273 -122 299 -141.5 Q325 -161 325 -178 Q325 -206 308 -222.5 Q291 -239 263 -239 Q240 -239 217 -232 Q194 -225 179 -214 L179 -209 Q189 -217 210 -221 Q231 -225 256 -225 Q274 -225 285 -214 Q296 -203 296 -186 Q296 -176 273.5 -162.5 Q251 -149 214 -137 L199 -130 Q222 -81 236.5 -49 Q251 -17 255 -9 Q209 -8 171 8 Q133 24 106 52.5 Q79 81 64 121 Q49 161 49 210 Q49 266 65.5 312 Q82 358 112.5 391 Q143 424 185.5 442 Q228 460 280 460 Q329 460 365.5 444 Q402 428 428 386 L432 381 Z " />
<glyph glyph-name="egrave" unicode="&#xe8;" horiz-adv-x="483" d="M143 676 Q140 681 137.5 686 Q135 691 133 696 Q131 701 129 707 L169 707 L256 530 L250 530 L143 676 Z M52 210 Q52 266 67 312 Q82 358 110 391 Q138 424 176.5 442 Q215 460 263 460 Q302 460 333.5 444.5 Q365 429 387.5 401.5 Q410 374 422.5 334.5 Q435 295 435 247 L92 245 Q92 242 92 238 Q92 193 104.5 154 Q117 115 142 86.5 Q167 58 203 42.5 Q239 27 284 27 Q319 27 359.5 47 Q400 67 431 100 L435 100 L435 96 Q409 48 362 19 Q315 -10 263 -10 Q215 -10 176.5 6 Q138 22 110 50.5 Q82 79 67 120 Q52 161 52 210 Z M398 268 Q393 346 354 392.5 Q315 439 252 439 Q186 439 143 392.5 Q100 346 92 268 L398 268 Z " />
<glyph glyph-name="eacute" unicode="&#xe9;" horiz-adv-x="483" d="M340 707 L380 707 Q378 701 376 696 Q374 687 366 676 L259 530 L253 530 L340 707 Z M52 210 Q52 266 67 312 Q82 358 110 391 Q138 424 176.5 442 Q215 460 263 460 Q302 460 333.5 444.5 Q365 429 387.5 401.5 Q410 374 422.5 334.5 Q435 295 435 247 L92 245 Q92 242 92 238 Q92 193 104.5 154 Q117 115 142 86.5 Q167 58 203 42.5 Q239 27 284 27 Q319 27 359.5 47 Q400 67 431 100 L435 100 L435 96 Q409 48 362 19 Q315 -10 263 -10 Q215 -10 176.5 6 Q138 22 110 50.5 Q82 79 67 120 Q52 161 52 210 Z M398 268 Q393 346 354 392.5 Q315 439 252 439 Q186 439 143 392.5 Q100 346 92 268 L398 268 Z " />
<glyph glyph-name="ecircumflex" unicode="&#xea;" horiz-adv-x="483" d="M120 530 L244 705 L259 705 L388 530 L382 530 L252 658 L126 530 L120 530 Z M263 -10 Q215 -10 176.5 6 Q138 22 110 50.5 Q82 79 67 120 Q52 161 52 210 Q52 266 67 312 Q82 358 110 391 Q138 424 176.5 442 Q215 460 263 460 Q302 460 333.5 444.5 Q365 429 387.5 401.5 Q410 374 422.5 334.5 Q435 295 435 247 L92 245 Q92 242 92 238 Q92 193 104.5 154 Q117 115 142 86.5 Q167 58 203 42.5 Q239 27 284 27 Q319 27 359.5 47 Q400 67 431 100 L435 100 L435 96 Q409 48 362 19 Q315 -10 263 -10 Z M398 268 Q393 346 354 392.5 Q315 439 252 439 Q186 439 143 392.5 Q100 346 92 268 L398 268 Z " />
<glyph glyph-name="edieresis" unicode="&#xeb;" horiz-adv-x="483" d="M297 595 Q297 608 305 614 Q313 620 322 620 Q332 620 339.5 614 Q347 608 347 595 Q347 583 339.5 576.5 Q332 570 322 570 Q313 570 305 576.5 Q297 583 297 595 Z M207 595 Q207 583 199.5 576.5 Q192 570 182 570 Q173 570 165 576.5 Q157 583 157 595 Q157 608 165 614 Q173 620 182 620 Q192 620 199.5 614 Q207 608 207 595 Z M92 245 Q92 242 92 238 Q92 193 104.5 154 Q117 115 142 86.5 Q167 58 203 42.5 Q239 27 284 27 Q319 27 359.5 47 Q400 67 431 100 L435 100 L435 96 Q409 48 362 19 Q315 -10 263 -10 Q215 -10 176.5 6 Q138 22 110 50.5 Q82 79 67 120 Q52 161 52 210 Q52 266 67 312 Q82 358 110 391 Q138 424 176.5 442 Q215 460 263 460 Q302 460 333.5 444.5 Q365 429 387.5 401.5 Q410 374 422.5 334.5 Q435 295 435 247 L92 245 Z M398 268 Q393 346 354 392.5 Q315 439 252 439 Q186 439 143 392.5 Q100 346 92 268 L398 268 Z " />
<glyph glyph-name="igrave" unicode="&#xec;" horiz-adv-x="151" d="M-11 707 L76 530 L70 530 L-37 676 Q-45 687 -47 696 Q-49 701 -51 707 L-11 707 Z M54 445 L88 460 L96 460 L96 50 L98 18 L98 0 L54 0 L54 18 L56 50 L56 361 Q56 369 55 379 Q55 388 55 400 Q55 412 54 427 L54 445 Z " />
<glyph glyph-name="iacute" unicode="&#xed;" horiz-adv-x="151" d="M73 530 L160 707 L200 707 Q198 701 196 696 Q194 687 186 676 L79 530 L73 530 Z M54 18 L56 50 L56 361 Q56 369 55 379 Q55 388 55 400 Q55 412 54 427 L54 445 L88 460 L96 460 L96 50 L98 18 L98 0 L54 0 L54 18 Z " />
<glyph glyph-name="icircumflex" unicode="&#xee;" horiz-adv-x="151" d="M64 705 L79 705 L208 530 L202 530 L72 658 L-54 530 L-60 530 L64 705 Z M54 445 L88 460 L96 460 L96 50 L98 18 L98 0 L54 0 L54 18 L56 50 L56 361 Q56 369 55 379 Q55 388 55 400 Q55 412 54 427 L54 445 Z " />
<glyph glyph-name="idieresis" unicode="&#xef;" horiz-adv-x="151" d="M166 595 Q166 583 158.5 576.5 Q151 570 141 570 Q132 570 124 576.5 Q116 583 116 595 Q116 608 124 614 Q132 620 141 620 Q151 620 158.5 614 Q166 608 166 595 Z M-24 595 Q-24 608 -16.5 614 Q-9 620 1 620 Q11 620 18.5 614 Q26 608 26 595 Q26 583 18.5 576.5 Q11 570 1 570 Q-9 570 -16.5 576.5 Q-24 583 -24 595 Z M54 445 L88 460 L96 460 L96 50 L98 18 L98 0 L54 0 L54 18 L56 50 L56 361 Q56 369 55 379 Q55 388 55 400 Q55 412 54 427 L54 445 Z " />
<glyph glyph-name="ntilde" unicode="&#xf1;" horiz-adv-x="454" d="M383 668 Q368 622 349 594 Q330 566 289 566 Q275 566 259 575 Q243 584 226.5 595.5 Q210 607 193.5 616 Q177 625 163 625 Q145 625 133 620 Q121 615 113 606 Q105 597 99 584 Q93 571 88 555 L81 555 Q95 599 114 626.5 Q133 654 175 654 Q189 654 205.5 645 Q222 636 238.5 625 Q255 614 271 605 Q287 596 301 596 Q336 596 350.5 616 Q365 636 376 668 L383 668 Z M414 18 L414 0 L369 0 L369 18 L372 50 L372 320 Q372 368 336.5 396.5 Q301 425 241 425 Q192 425 156 407.5 Q120 390 92 361 L92 50 L95 18 L95 0 L50 0 L50 18 L52 50 L52 361 Q52 369 51 379 Q51 388 51 400 Q51 412 50 427 L50 445 L82 460 L90 460 Q90 446 91 432 Q91 420 91.5 406.5 Q92 393 92 382 L92 376 Q128 414 170 437 Q212 460 263 460 Q330 460 371 428 Q412 396 412 343 L412 50 L414 18 Z " />
<glyph glyph-name="ograve" unicode="&#xf2;" horiz-adv-x="527" d="M155 676 Q152 681 149.5 686 Q147 691 145 696 Q143 701 141 707 L181 707 L268 530 L262 530 L155 676 Z M50 225 Q50 278 63.5 321.5 Q77 365 104 395.5 Q131 426 171 443 Q211 460 264 460 Q312 460 351.5 443 Q391 426 418.5 395.5 Q446 365 461.5 321.5 Q477 278 477 225 Q477 172 463.5 128.5 Q450 85 423.5 54.5 Q397 24 357 7 Q317 -10 264 -10 Q216 -10 176.5 7 Q137 24 109 54.5 Q81 85 65.5 128.5 Q50 172 50 225 Z M96 225 Q96 177 108.5 137.5 Q121 98 144 70 Q167 42 199 26.5 Q231 11 270 11 Q350 11 390.5 70 Q431 129 431 225 Q431 273 418.5 312.5 Q406 352 383 380 Q360 408 328 423.5 Q296 439 257 439 Q217 439 187 423.5 Q157 408 137 380 Q117 352 106.5 312.5 Q96 273 96 225 Z " />
<glyph glyph-name="oacute" unicode="&#xf3;" horiz-adv-x="527" d="M265 530 L352 707 L392 707 Q390 701 388 696 Q386 687 378 676 L271 530 L265 530 Z M264 -10 Q216 -10 176.5 7 Q137 24 109 54.5 Q81 85 65.5 128.5 Q50 172 50 225 Q50 278 63.5 321.5 Q77 365 104 395.5 Q131 426 171 443 Q211 460 264 460 Q312 460 351.5 443 Q391 426 418.5 395.5 Q446 365 461.5 321.5 Q477 278 477 225 Q477 172 463.5 128.5 Q450 85 423.5 54.5 Q397 24 357 7 Q317 -10 264 -10 Z M96 225 Q96 177 108.5 137.5 Q121 98 144 70 Q167 42 199 26.5 Q231 11 270 11 Q350 11 390.5 70 Q431 129 431 225 Q431 273 418.5 312.5 Q406 352 383 380 Q360 408 328 423.5 Q296 439 257 439 Q217 439 187 423.5 Q157 408 137 380 Q117 352 106.5 312.5 Q96 273 96 225 Z " />
<glyph glyph-name="ocircumflex" unicode="&#xf4;" horiz-adv-x="527" d="M132 530 L256 705 L271 705 L400 530 L394 530 L264 658 L138 530 L132 530 Z M50 225 Q50 278 63.5 321.5 Q77 365 104 395.5 Q131 426 171 443 Q211 460 264 460 Q312 460 351.5 443 Q391 426 418.5 395.5 Q446 365 461.5 321.5 Q477 278 477 225 Q477 172 463.5 128.5 Q450 85 423.5 54.5 Q397 24 357 7 Q317 -10 264 -10 Q216 -10 176.5 7 Q137 24 109 54.5 Q81 85 65.5 128.5 Q50 172 50 225 Z M96 225 Q96 177 108.5 137.5 Q121 98 144 70 Q167 42 199 26.5 Q231 11 270 11 Q350 11 390.5 70 Q431 129 431 225 Q431 273 418.5 312.5 Q406 352 383 380 Q360 408 328 423.5 Q296 439 257 439 Q217 439 187 423.5 Q157 408 137 380 Q117 352 106.5 312.5 Q96 273 96 225 Z " />
<glyph glyph-name="otilde" unicode="&#xf5;" horiz-adv-x="527" d="M113 555 Q127 599 146 626.5 Q165 654 207 654 Q221 654 237 645 Q249 638 261 630 L278 620 Q290 612 302 605 Q318 596 332 596 Q367 596 382.5 616 Q398 636 408 668 L414 668 Q399 622 380 594 Q361 566 320 566 Q306 566 290 575 Q278 582 266 590 L249 601 Q237 609 225 616 Q209 625 195 625 Q177 625 165 620 Q153 615 144.5 606 Q136 597 130 584 Q124 571 119 555 L113 555 Z M50 225 Q50 278 63.5 321.5 Q77 365 104 395.5 Q131 426 171 443 Q211 460 264 460 Q312 460 351.5 443 Q391 426 418.5 395.5 Q446 365 461.5 321.5 Q477 278 477 225 Q477 172 463.5 128.5 Q450 85 423.5 54.5 Q397 24 357 7 Q317 -10 264 -10 Q216 -10 176.5 7 Q137 24 109 54.5 Q81 85 65.5 128.5 Q50 172 50 225 Z M96 225 Q96 177 108.5 137.5 Q121 98 144 70 Q167 42 199 26.5 Q231 11 270 11 Q350 11 390.5 70 Q431 129 431 225 Q431 273 418.5 312.5 Q406 352 383 380 Q360 408 328 423.5 Q296 439 257 439 Q217 439 187 423.5 Q157 408 137 380 Q117 352 106.5 312.5 Q96 273 96 225 Z " />
<glyph glyph-name="odieresis" unicode="&#xf6;" horiz-adv-x="527" d="M359 595 Q359 583 351.5 576.5 Q344 570 334 570 Q325 570 317 576.5 Q309 583 309 595 Q309 608 317 614 Q325 620 334 620 Q344 620 351.5 614 Q359 608 359 595 Z M169 595 Q169 608 177 614 Q185 620 194 620 Q204 620 211.5 614 Q219 608 219 595 Q219 583 211.5 576.5 Q204 570 194 570 Q185 570 177 576.5 Q169 583 169 595 Z M264 -10 Q216 -10 176.5 7 Q137 24 109 54.5 Q81 85 65.5 128.5 Q50 172 50 225 Q50 278 63.5 321.5 Q77 365 104 395.5 Q131 426 171 443 Q211 460 264 460 Q312 460 351.5 443 Q391 426 418.5 395.5 Q446 365 461.5 321.5 Q477 278 477 225 Q477 172 463.5 128.5 Q450 85 423.5 54.5 Q397 24 357 7 Q317 -10 264 -10 Z M257 439 Q217 439 187 423.5 Q157 408 137 380 Q117 352 106.5 312.5 Q96 273 96 225 Q96 177 108.5 137.5 Q121 98 144 70 Q167 42 199 26.5 Q231 11 270 11 Q350 11 390.5 70 Q431 129 431 225 Q431 273 418.5 312.5 Q406 352 383 380 Q360 408 328 423.5 Q296 439 257 439 Z " />
<glyph glyph-name="oslash" unicode="&#xf8;" horiz-adv-x="527" d="M444 459 L477 459 L421 392 Q448 361 462.5 318.5 Q477 276 477 224 Q477 171 463.5 127.5 Q450 84 423.5 53.5 Q397 23 357 6 Q317 -11 264 -11 Q180 -11 124 39 L83 -10 L50 -10 L107 57 Q80 88 65 130 Q50 172 50 224 Q50 277 64 320.5 Q78 364 105 394.5 Q132 425 172 442 Q212 459 265 459 Q307 459 341.5 446 Q376 433 403 410 L444 459 Z M97 225 Q97 143 133 87 L381 383 L380 384 Q357 410 326.5 424.5 Q296 439 258 439 Q218 439 188 423.5 Q158 408 138 380 Q118 352 107.5 312.5 Q97 273 97 225 Z M148 66 Q171 40 201.5 25.5 Q232 11 270 11 Q350 11 390.5 70 Q431 129 431 225 Q431 307 395 363 L148 66 Z " />
<glyph glyph-name="ugrave" unicode="&#xf9;" horiz-adv-x="416" d="M95 676 Q92 681 89.5 686 Q87 691 85 696 Q83 701 81 707 L121 707 L208 530 L202 530 L95 676 Z M174 -10 Q108 -10 68 22 Q28 54 28 107 L28 400 L26 432 L26 450 L68 450 L68 131 Q68 83 103.5 54.5 Q139 26 197 26 Q233 26 272.5 43.5 Q312 61 348 96 L348 400 L345 432 L345 450 L388 450 L388 50 L391 18 L391 0 L348 0 L348 80 Q302 35 256.5 12.5 Q211 -10 174 -10 Z " />
<glyph glyph-name="uacute" unicode="&#xfa;" horiz-adv-x="416" d="M205 530 L292 707 L332 707 Q330 701 328 696 Q326 687 318 676 L211 530 L205 530 Z M174 -10 Q108 -10 68 22 Q28 54 28 107 L28 400 L26 432 L26 450 L68 450 L68 131 Q68 83 103.5 54.5 Q139 26 197 26 Q233 26 272.5 43.5 Q312 61 348 96 L348 400 L345 432 L345 450 L388 450 L388 50 L391 18 L391 0 L348 0 L348 80 Q302 35 256.5 12.5 Q211 -10 174 -10 Z " />
<glyph glyph-name="ucircumflex" unicode="&#xfb;" horiz-adv-x="416" d="M196 705 L211 705 L340 530 L334 530 L204 658 L78 530 L72 530 L196 705 Z M68 131 Q68 83 103.5 54.5 Q139 26 197 26 Q233 26 272.5 43.5 Q312 61 348 96 L348 400 L345 432 L345 450 L388 450 L388 50 L391 18 L391 0 L348 0 L348 80 Q302 35 256.5 12.5 Q211 -10 174 -10 Q108 -10 68 22 Q28 54 28 107 L28 400 L26 432 L26 450 L68 450 L68 131 Z " />
<glyph glyph-name="udieresis" unicode="&#xfc;" horiz-adv-x="416" d="M298 595 Q298 583 290.5 576.5 Q283 570 273 570 Q264 570 256 576.5 Q248 583 248 595 Q248 608 256 614 Q264 620 273 620 Q283 620 290.5 614 Q298 608 298 595 Z M158 595 Q158 583 150.5 576.5 Q143 570 133 570 Q124 570 116 576.5 Q108 583 108 595 Q108 608 116 614 Q124 620 133 620 Q143 620 150.5 614 Q158 608 158 595 Z M26 450 L68 450 L68 131 Q68 83 103.5 54.5 Q139 26 197 26 Q233 26 272.5 43.5 Q312 61 348 96 L348 400 L345 432 L345 450 L388 450 L388 50 L391 18 L391 0 L348 0 L348 80 Q302 35 256.5 12.5 Q211 -10 174 -10 Q108 -10 68 22 Q28 54 28 107 L28 400 L26 432 L26 450 Z " />
<glyph glyph-name="yacute" unicode="&#xfd;" horiz-adv-x="381" d="M287 707 L327 707 Q325 701 323 696 Q321 687 313 676 L206 530 L200 530 L287 707 Z M27 452 Q27 450 29 442.5 Q31 435 32 433 L221 56 L373 433 Q374 436 374.5 440 Q375 444 377 452 L403 452 L402 448 Q401 446 400.5 443 Q400 440 398 436 L397 435 Q397 434 396 433 L380 397 Q330 276 281.5 155 Q233 34 184 -88 Q152 -169 118.5 -203.5 Q85 -238 37 -238 Q20 -238 20 -223 L20 -200 Q20 -196 21 -196 L44 -196 Q86 -196 113.5 -170 Q141 -144 166 -81 L201 7 Q169 71 142 125.5 Q115 180 89.5 230.5 Q64 281 39 330 Q14 379 -15 432 Q-17 437 -18 441 Q-19 445 -20 447 Q-21 450 -22 452 L27 452 Z " />
<glyph glyph-name="ydieresis" unicode="&#xff;" horiz-adv-x="381" d="M243 595 Q243 608 251 614 Q259 620 268 620 Q278 620 285.5 614 Q293 608 293 595 Q293 583 285.5 576.5 Q278 570 268 570 Q259 570 251 576.5 Q243 583 243 595 Z M103 595 Q103 608 111 614 Q119 620 128 620 Q138 620 145.5 614 Q153 608 153 595 Q153 583 145.5 576.5 Q138 570 128 570 Q119 570 111 576.5 Q103 583 103 595 Z M-15 432 Q-17 437 -18 441 Q-19 445 -20 447 Q-21 450 -22 452 L27 452 Q27 450 29 442.5 Q31 435 32 433 L221 56 L373 433 Q374 436 374.5 440 Q375 444 377 452 L403 452 L402 448 Q401 446 400.5 443 Q400 440 398 436 L397 435 Q397 434 396 433 L380 397 Q330 276 281.5 155 Q233 34 184 -88 Q152 -169 118.5 -203.5 Q85 -238 37 -238 Q20 -238 20 -223 L20 -200 Q20 -196 24 -196 L44 -196 Q86 -196 113.5 -170 Q141 -144 166 -81 L201 7 Q169 71 142 125.5 Q115 180 89.5 230.5 Q64 281 39 330 Q14 379 -15 432 Z " />
<glyph glyph-name="Amacron" unicode="&#x100;" horiz-adv-x="649" d="M453 768 L187 768 L187 793 L453 793 L453 768 Z M561 1 Q560 5 560 8 Q558 16 558 17 L460 254 L462 254 L459 256 L460 254 L170 254 Q141 185 120.5 134 Q100 83 86 50 L73 19 Q72 18 70 11.5 Q68 5 68 3 Q68 1 69 1 L31 1 L33 7 Q34 10 34.5 13.5 Q35 17 36 19 L52 51 Q67 86 90.5 142 Q114 198 145.5 273 Q177 348 215.5 440 Q254 532 298 638 L298 639 L310 666 L332 666 L594 45 L607 17 Q611 14 611 7 Q612 4 612 1 L561 1 Z M447 282 L313 601 Q275 510 241.5 430 Q208 350 180 282 L447 282 Z " />
<glyph glyph-name="amacron" unicode="&#x101;" horiz-adv-x="480" d="M360 623 L360 598 L94 598 L94 623 L360 623 Z M374 70 Q374 47 389 33 Q404 19 428 19 Q443 19 454.5 26 Q466 33 471 45 L472 42 Q463 19 444 4.5 Q425 -10 403 -10 Q374 -10 355.5 9.5 Q337 29 334 61 Q305 26 262 8 Q219 -10 171 -10 Q120 -10 88.5 16 Q57 42 57 85 Q57 138 126.5 183.5 Q196 229 333 258 L333 337 Q333 382 305.5 409.5 Q278 437 224 437 Q200 437 179.5 429 Q159 421 143.5 407.5 Q128 394 119.5 375.5 Q111 357 111 335 L112 323 L107 318 L81 318 Q71 318 71 332 Q71 359 83.5 382.5 Q96 406 118.5 423.5 Q141 441 171.5 450.5 Q202 460 238 460 Q306 460 340 429.5 Q374 399 374 348 L374 70 Z M97 95 Q97 62 123.5 41.5 Q150 21 194 21 Q237 21 274 34.5 Q311 48 334 74 L334 239 Q216 215 156.5 177 Q97 139 97 95 Z " />
<glyph glyph-name="Abreve" unicode="&#x102;" horiz-adv-x="649" d="M189 835 L189 834 Q206 785 236 764.5 Q266 744 320 744 Q373 744 403 764.5 Q433 785 450 834 L457 834 Q434 769 402.5 741.5 Q371 714 320 714 Q269 714 237 741.5 Q205 769 182 835 L189 835 Z M561 1 Q560 5 560 8 Q558 16 558 17 L460 254 L462 254 L459 256 L460 254 L170 254 Q141 185 120.5 134 Q100 83 86 50 L73 19 Q72 18 70 11.5 Q68 5 68 3 Q68 1 69 1 L31 1 L33 7 Q34 10 34.5 13.5 Q35 17 36 19 L52 51 Q67 86 90.5 142 Q114 198 145.5 273 Q177 348 215.5 440 Q254 532 298 638 L298 639 L310 666 L332 666 L594 45 L607 17 Q611 14 611 7 Q612 4 612 1 L561 1 Z M447 282 L313 601 Q275 510 241.5 430 Q208 350 180 282 L447 282 Z " />
<glyph glyph-name="abreve" unicode="&#x103;" horiz-adv-x="480" d="M96 674 Q113 620 143 597 Q173 574 227 574 Q281 574 311 597 Q341 620 358 674 L365 674 Q342 602 310 571 Q278 540 227 540 Q176 540 144 571 Q112 602 89 674 L96 674 Z M374 70 Q374 47 389 33 Q404 19 428 19 Q443 19 454.5 26 Q466 33 471 45 L472 42 Q463 19 444 4.5 Q425 -10 403 -10 Q374 -10 355.5 9.5 Q337 29 334 61 Q305 26 262 8 Q219 -10 171 -10 Q120 -10 88.5 16 Q57 42 57 85 Q57 138 126.5 183.5 Q196 229 333 258 L333 337 Q333 382 305.5 409.5 Q278 437 224 437 Q200 437 179.5 429 Q159 421 143.5 407.5 Q128 394 119.5 375.5 Q111 357 111 335 L112 323 L107 318 L81 318 Q71 318 71 332 Q71 359 83.5 382.5 Q96 406 118.5 423.5 Q141 441 171.5 450.5 Q202 460 238 460 Q306 460 340 429.5 Q374 399 374 348 L374 70 Z M334 239 Q216 215 156.5 177 Q97 139 97 95 Q97 62 123.5 41.5 Q150 21 194 21 Q237 21 274 34.5 Q311 48 334 74 L334 239 Z " />
<glyph glyph-name="Cacute" unicode="&#x106;" horiz-adv-x="712" d="M369 705 L456 864 L496 864 Q494 859 492 854 Q489 845 482 836 L375 705 L369 705 Z M68 316 Q68 396 92.5 462 Q117 528 162 574.5 Q207 621 270 646.5 Q333 672 410 672 Q443 672 473.5 668.5 Q504 665 531 658.5 Q558 652 579 643 Q600 634 613 623 L614 590 Q609 590 605.5 589.5 Q602 589 598 589 Q592 593 585 597 L556 613 Q550 617 543 621 L537 624 Q479 646 411 646 Q344 646 289.5 623.5 Q235 601 196 559.5 Q157 518 136 459.5 Q115 401 115 330 Q115 260 135.5 202 Q156 144 193 102.5 Q230 61 282 38.5 Q334 16 397 16 Q435 16 474.5 23 Q514 30 548 43 Q563 51 576 58 Q587 64 596.5 69 Q606 74 608 75 L622 77 L620 44 Q586 21 525 6.5 Q464 -8 396 -8 Q322 -8 261.5 15.5 Q201 39 158 81.5 Q115 124 91.5 183.5 Q68 243 68 316 Z " />
<glyph glyph-name="cacute" unicode="&#x107;" horiz-adv-x="477" d="M345 707 L385 707 Q383 701 381 696 Q379 687 371 676 L264 530 L258 530 L345 707 Z M263 439 Q224 439 192 424.5 Q160 410 137 383 Q114 356 101.5 318 Q89 280 89 233 Q89 187 103 149 Q117 111 142 84 Q167 57 202.5 42 Q238 27 281 27 Q316 27 356.5 47 Q397 67 428 100 L432 100 L432 96 Q406 48 359 19 Q312 -10 260 -10 Q212 -10 173.5 6 Q135 22 107 50.5 Q79 79 64 120 Q49 161 49 210 Q49 266 65.5 312 Q82 358 112.5 391 Q143 424 185.5 442 Q228 460 280 460 Q328 460 365.5 443.5 Q403 427 428 386 Q431 382 431 381 L406 358 L405 353 L401 353 L375 388 Q358 411 327 425 Q296 439 263 439 Z " />
<glyph glyph-name="Ccaron" unicode="&#x10c;" horiz-adv-x="712" d="M387 752 L518 868 L523 868 L524 869 L524 868 L523 868 L395 711 L394 712 L382 712 L380 710 L380 711 L256 868 L262 868 L387 752 Z M622 77 L620 44 Q586 21 525 6.5 Q464 -8 396 -8 Q322 -8 261.5 15.5 Q201 39 158 81.5 Q115 124 91.5 183.5 Q68 243 68 316 Q68 396 92.5 462 Q117 528 162 574.5 Q207 621 270 646.5 Q333 672 410 672 Q443 672 473.5 668.5 Q504 665 531 658.5 Q558 652 579 643 Q600 634 613 623 L614 590 Q609 590 605.5 589.5 Q602 589 598 589 Q592 593 585 597 L556 613 Q550 617 543 621 L537 624 Q479 646 411 646 Q344 646 289.5 623.5 Q235 601 196 559.5 Q157 518 136 459.5 Q115 401 115 330 Q115 260 135.5 202 Q156 144 193 102.5 Q230 61 282 38.5 Q334 16 397 16 Q435 16 474.5 23 Q514 30 548 43 Q563 51 576 58 Q587 64 596.5 69 Q606 74 608 75 L622 77 Z " />
<glyph glyph-name="ccaron" unicode="&#x10d;" horiz-adv-x="477" d="M125 710 L131 710 L257 582 L387 710 L393 710 L264 535 L249 535 L125 710 Z M432 100 L432 96 Q406 48 359 19 Q312 -10 260 -10 Q212 -10 173.5 6 Q135 22 107 50.5 Q79 79 64 120 Q49 161 49 210 Q49 266 65.5 312 Q82 358 112.5 391 Q143 424 185.5 442 Q228 460 280 460 Q328 460 365.5 443.5 Q403 427 428 386 Q431 382 431 381 L406 358 L405 353 L401 353 L375 388 Q358 411 327 425 Q296 439 263 439 Q224 439 192 424.5 Q160 410 137 383 Q114 356 101.5 318 Q89 280 89 233 Q89 187 103 149 Q117 111 142 84 Q167 57 202.5 42 Q238 27 281 27 Q316 27 356.5 47 Q397 67 428 100 L432 100 Z " />
<glyph glyph-name="Dcaron" unicode="&#x10e;" horiz-adv-x="687" d="M489 869 L489 868 L488 868 L360 711 L359 712 L347 712 L345 710 L345 711 L221 868 L227 868 L352 752 L483 868 L488 868 L489 869 Z M65 641 L65 660 L244 660 Q328 660 397 640.5 Q466 621 514.5 583 Q563 545 590 487.5 Q617 430 617 355 Q617 270 590.5 205 Q564 140 516 95.5 Q468 51 400 27 Q332 3 249 0 L65 0 L65 19 L68 55 L68 605 L65 641 Z M113 633 L113 28 L217 28 Q236 27 248 27 Q320 30 379.5 51 Q439 72 481.5 111 Q524 150 547 207 Q570 264 570 338 Q570 411 545.5 466.5 Q521 522 476.5 559 Q432 596 369.5 614.5 Q307 633 231 633 L113 633 Z " />
<glyph glyph-name="dcaron" unicode="&#x10f;" horiz-adv-x="496" d="M287 460 Q309 460 340.5 454.5 Q372 449 406 439 L406 671 Q406 678 405 687 Q405 695 405 706 Q405 717 404 730 L405 746 L407 747 L408 747 L439 757 L447 757 L447 50 L450 18 L450 0 L412 0 Q411 11 410 22 Q408 32 407.5 42 Q407 52 407 59 Q380 27 333.5 8.5 Q287 -10 235 -10 Q193 -10 158.5 5 Q124 20 99.5 47 Q75 74 61.5 112.5 Q48 151 48 197 Q48 256 65 304.5 Q82 353 113.5 387.5 Q145 422 189 441 Q233 460 287 460 Z M528 563 L550 750 L587 750 Q589 750 589.5 748.5 Q590 747 591 747 Q592 747 595 756 L534 563 L528 563 Z M407 394 Q378 404 355.5 412 Q333 420 316 425 Q296 431 281 436 Q238 436 202.5 420 Q167 404 142 374 Q117 344 103 302.5 Q89 261 89 210 Q89 168 101.5 133.5 Q114 99 137 75 Q160 51 192.5 37.5 Q225 24 264 24 Q308 24 346.5 38.5 Q385 53 407 77 L407 394 Z " />
<glyph glyph-name="Emacron" unicode="&#x112;" horiz-adv-x="573" d="M125 768 L125 793 L391 793 L391 768 L125 768 Z M65 19 L68 55 L68 605 L65 641 L65 660 L478 660 L478 629 L461 629 Q420 632 377 633 Q334 634 289 634 Q244 634 200.5 633.5 Q157 633 113 633 L113 354 L328 354 Q360 357 392 357 L392 323 L369 323 Q339 325 307 326 Q275 327 243 327 Q227 327 211 327 L145 326 Q129 326 113 326 L113 28 L428 28 L486 33 L503 33 L503 0 L65 0 L65 19 Z " />
<glyph glyph-name="emacron" unicode="&#x113;" horiz-adv-x="483" d="M124 623 L390 623 L390 598 L124 598 L124 623 Z M92 245 Q92 242 92 238 Q92 193 104.5 154 Q117 115 142 86.5 Q167 58 203 42.5 Q239 27 284 27 Q319 27 359.5 47 Q400 67 431 100 L435 100 L435 96 Q409 48 362 19 Q315 -10 263 -10 Q215 -10 176.5 6 Q138 22 110 50.5 Q82 79 67 120 Q52 161 52 210 Q52 266 67 312 Q82 358 110 391 Q138 424 176.5 442 Q215 460 263 460 Q302 460 333.5 444.5 Q365 429 387.5 401.5 Q410 374 422.5 334.5 Q435 295 435 247 L417 245 L92 245 Z M252 439 Q186 439 143 392.5 Q100 346 92 268 L398 268 Q393 346 354 392.5 Q315 439 252 439 Z " />
<glyph glyph-name="Edotaccent" unicode="&#x116;" horiz-adv-x="573" d="M293 755 Q293 741 283.5 733.5 Q274 726 263 726 Q252 726 242.5 733.5 Q233 741 233 755 Q233 770 242.5 777 Q252 784 263 784 Q274 784 283.5 777 Q293 770 293 755 Z M65 19 L68 55 L68 605 L65 641 L65 660 L478 660 L478 629 L461 629 Q420 632 377 633 Q334 634 289 634 Q244 634 200.5 633.5 Q157 633 113 633 L113 354 L328 354 Q360 357 392 357 L392 323 L369 323 Q339 325 307 326 Q275 327 243 327 Q227 327 211 327 L145 326 Q129 326 113 326 L113 28 L428 28 L486 33 L503 33 L503 0 L65 0 L65 19 Z " />
<glyph glyph-name="edotaccent" unicode="&#x117;" horiz-adv-x="483" d="M232 613 Q232 628 241.5 635 Q251 642 262 642 Q273 642 282.5 635 Q292 628 292 613 Q292 599 282.5 591.5 Q273 584 262 584 Q251 584 241.5 591.5 Q232 599 232 613 Z M52 210 Q52 266 67 312 Q82 358 110 391 Q138 424 176.5 442 Q215 460 263 460 Q302 460 333.5 444.5 Q365 429 387.5 401.5 Q410 374 422.5 334.5 Q435 295 435 247 L417 245 L92 245 Q92 242 92 238 Q92 193 104.5 154 Q117 115 142 86.5 Q167 58 203 42.5 Q239 27 284 27 Q319 27 359.5 47 Q400 67 431 100 L435 100 L435 96 Q409 48 362 19 Q315 -10 263 -10 Q215 -10 176.5 6 Q138 22 110 50.5 Q82 79 67 120 Q52 161 52 210 Z M398 268 Q393 346 354 392.5 Q315 439 252 439 Q186 439 143 392.5 Q100 346 92 268 L398 268 Z " />
<glyph glyph-name="Ecaron" unicode="&#x11a;" horiz-adv-x="573" d="M127 868 L133 868 L258 752 L389 868 L394 868 L395 869 L395 868 L394 868 L266 711 L265 712 L253 712 L251 710 L251 711 L127 868 Z M486 33 L503 33 L503 0 L65 0 L65 19 L68 55 L68 605 L65 641 L65 660 L478 660 L478 629 L461 629 Q420 632 377 633 Q334 634 289 634 Q244 634 200.5 633.5 Q157 633 113 633 L113 354 L328 354 Q360 357 392 357 L392 323 L369 323 Q339 325 307 326 Q275 327 243 327 Q227 327 211 327 L145 326 Q129 326 113 326 L113 28 L428 28 L486 33 Z " />
<glyph glyph-name="ecaron" unicode="&#x11b;" horiz-adv-x="483" d="M120 710 L126 710 L252 582 L382 710 L388 710 L259 535 L244 535 L120 710 Z M263 -10 Q215 -10 176.5 6 Q138 22 110 50.5 Q82 79 67 120 Q52 161 52 210 Q52 266 67 312 Q82 358 110 391 Q138 424 176.5 442 Q215 460 263 460 Q302 460 333.5 444.5 Q365 429 387.5 401.5 Q410 374 422.5 334.5 Q435 295 435 247 L417 245 L92 245 Q92 242 92 238 Q92 193 104.5 154 Q117 115 142 86.5 Q167 58 203 42.5 Q239 27 284 27 Q319 27 359.5 47 Q400 67 431 100 L435 100 L435 96 Q409 48 362 19 Q315 -10 263 -10 Z M398 268 Q393 346 354 392.5 Q315 439 252 439 Q186 439 143 392.5 Q100 346 92 268 L398 268 Z " />
<glyph glyph-name="Gbreve" unicode="&#x11e;" horiz-adv-x="700" d="M267 835 L267 834 Q284 785 314 764.5 Q344 744 397 744 Q451 744 481 764.5 Q511 785 528 834 L535 834 Q512 769 480 741.5 Q448 714 397 714 Q346 714 314.5 741.5 Q283 769 260 835 L267 835 Z M635 588 Q630 588 626.5 587.5 Q623 587 619 587 L618 588 Q616 589 606 594.5 Q596 600 585 606.5 Q574 613 564.5 618 Q555 623 555 623 Q526 634 491.5 639.5 Q457 645 421 645 Q352 645 295.5 622.5 Q239 600 199 558.5 Q159 517 137 458.5 Q115 400 115 329 Q115 259 136.5 202 Q158 145 197 104.5 Q236 64 290.5 41.5 Q345 19 412 19 Q472 19 522.5 31.5 Q573 44 602 66 L602 235 L599 271 L599 290 L650 290 L650 271 L647 235 L647 74 Q631 55 605.5 39.5 Q580 24 547 13 Q514 2 476 -4 Q438 -10 398 -10 Q324 -10 263.5 13.5 Q203 37 159.5 79.5 Q116 122 92.5 181.5 Q69 241 69 314 Q69 394 94.5 460 Q120 526 166 572.5 Q212 619 277 644.5 Q342 670 421 670 Q456 670 488.5 666.5 Q521 663 549 656.5 Q577 650 599 641 Q621 632 634 621 L635 588 Z " />
<glyph glyph-name="gbreve" unicode="&#x11f;" horiz-adv-x="536" d="M396 674 Q373 602 341 571 Q309 540 258 540 Q207 540 175 571 Q143 602 120 674 L127 674 Q144 620 174 597 Q204 574 258 574 Q312 574 342 597 Q372 620 389 674 L396 674 Z M320 41 Q404 41 439.5 6.5 Q475 -28 475 -85 Q475 -120 458 -149 Q441 -178 409.5 -198.5 Q378 -219 333.5 -230 Q289 -241 235 -241 Q161 -241 116.5 -209 Q72 -177 72 -123 Q72 -105 78.5 -84 Q85 -63 96.5 -44.5 Q108 -26 124.5 -11.5 Q141 3 162 9 Q124 14 102 32.5 Q80 51 80 78 Q80 102 103.5 123.5 Q127 145 165 158 Q132 174 111 202.5 Q90 231 84 256.5 Q78 282 78 301 Q78 316 83 341.5 Q88 367 109 395 Q130 423 166.5 440.5 Q203 458 255 458 Q276 458 294.5 454.5 Q313 451 330 445 L488 448 L488 421 L366 426 Q395 405 411.5 373 Q428 341 428 300 Q428 227 384.5 183 Q341 139 254 139 Q234 139 215.5 142.5 Q197 146 180 152 Q151 144 134 128.5 Q117 113 117 94 Q117 70 140 55.5 Q163 41 201 41 L320 41 Z M121 302 Q121 238 158.5 199 Q196 160 259 160 Q322 160 353.5 198.5 Q385 237 385 300 Q385 363 348 401.5 Q311 440 250 440 Q186 440 153.5 402.5 Q121 365 121 302 Z M108 -118 Q108 -168 144 -198 Q180 -228 240 -228 Q285 -228 321.5 -218.5 Q358 -209 384 -192 Q410 -175 424.5 -151 Q439 -127 439 -97 Q439 -50 407 -22 Q375 6 300 6 L189 6 Q171 6 156 -5.5 Q141 -17 130.5 -35 Q120 -53 114 -75 Q108 -97 108 -118 Z " />
<glyph glyph-name="Itilde" unicode="&#x128;" horiz-adv-x="190" d="M-56 705 Q-42 749 -23 776.5 Q-4 804 38 804 Q52 804 68.5 795 Q85 786 101.5 775 Q118 764 134 755 Q150 746 164 746 Q199 746 213.5 766 Q228 786 239 818 L246 818 Q231 772 212 744 Q193 716 152 716 Q138 716 122 725 Q106 734 89.5 745.5 Q73 757 56.5 766 Q40 775 26 775 Q-9 775 -24 756 Q-39 737 -49 705 L-56 705 Z M70 660 L121 660 L121 641 L118 605 L118 55 L121 19 L121 0 L70 0 L70 19 L73 55 L73 605 L70 641 L70 660 Z " />
<glyph glyph-name="itilde" unicode="&#x129;" horiz-adv-x="151" d="M-75 530 Q-61 574 -42 601.5 Q-23 629 19 629 Q33 629 49.5 620 Q66 611 82.5 600 Q99 589 115 580 Q131 571 145 571 Q180 571 194.5 591 Q209 611 220 643 L227 643 Q212 597 193 569 Q174 541 133 541 Q119 541 103 550 Q87 559 70.5 570.5 Q54 582 37.5 591 Q21 600 7 600 Q-28 600 -43 581 Q-58 562 -68 530 L-75 530 Z M88 460 L96 460 L96 50 L98 18 L98 0 L54 0 L54 18 L56 50 L56 361 Q56 369 55 379 Q55 388 55 400 Q55 412 54 427 L54 445 L88 460 Z " />
<glyph glyph-name="Imacron" unicode="&#x12a;" horiz-adv-x="190" d="M228 793 L228 768 L-38 768 L-38 793 L228 793 Z M70 19 L73 55 L73 605 L70 641 L70 660 L121 660 L121 641 L118 605 L118 55 L121 19 L121 0 L70 0 L70 19 Z " />
<glyph glyph-name="imacron" unicode="&#x12b;" horiz-adv-x="151" d="M-62 598 L-62 623 L204 623 L204 598 L-62 598 Z M54 445 L88 460 L96 460 L96 50 L98 18 L98 0 L54 0 L54 18 L56 50 L56 361 Q56 369 55 379 Q55 388 55 400 Q55 412 54 427 L54 445 Z " />
<glyph glyph-name="Idot" unicode="&#x130;" horiz-adv-x="190" d="M65 755 Q65 770 74.5 777 Q84 784 95 784 Q106 784 115.5 777 Q125 770 125 755 Q125 741 115.5 733.5 Q106 726 95 726 Q84 726 74.5 733.5 Q65 741 65 755 Z M70 660 L121 660 L121 641 L118 605 L118 55 L121 19 L121 0 L70 0 L70 19 L73 55 L73 605 L70 641 L70 660 Z " />
<glyph glyph-name="dotlessi" unicode="&#x131;" horiz-adv-x="151" d="M88 460 L96 460 L96 50 L98 18 L98 0 L54 0 L54 18 L56 50 L56 361 Q56 369 55 379 Q55 388 55 400 Q55 412 54 427 L54 445 L88 460 Z " />
<glyph glyph-name="Lacute" unicode="&#x139;" horiz-adv-x="553" d="M77 705 L164 864 L204 864 Q202 859 200 854 Q197 845 190 836 L83 705 L77 705 Z M116 660 L116 641 L113 605 L113 28 L403 28 L465 34 L483 34 L483 0 L65 0 L65 19 L68 55 L68 605 L65 641 L65 660 L116 660 Z " />
<glyph glyph-name="lacute" unicode="&#x13a;" horiz-adv-x="132" d="M142 924 L184 924 Q182 919 180 914 Q177 905 170 896 L58 765 L51 765 L142 924 Z M78 760 L86 760 L86 50 L88 18 L88 0 L44 0 L44 18 L46 50 L44 727 L44 745 L78 760 Z " />
<glyph glyph-name="Lcaron" unicode="&#x13d;" horiz-adv-x="553" d="M65 0 L65 19 L68 55 L68 605 L65 641 L65 660 L116 660 L116 641 L113 605 L113 28 L403 28 L465 34 L483 34 L483 0 L65 0 Z M412 660 L455 660 L396 473 L390 473 L412 660 Z " />
<glyph glyph-name="lcaron" unicode="&#x13e;" horiz-adv-x="132" d="M44 745 L78 760 L86 760 L86 50 L88 18 L88 0 L44 0 L44 18 L46 50 L44 727 L44 745 Z M190 750 L233 750 L174 563 L168 563 L190 750 Z " />
<glyph glyph-name="Nacute" unicode="&#x143;" horiz-adv-x="643" d="M336 705 L423 864 L463 864 Q461 859 459 854 Q456 845 449 836 L342 705 L336 705 Z M64 19 L67 55 L67 605 L64 641 L64 660 L102 660 L546 93 L546 605 L542 641 L542 660 L584 660 L584 641 L581 605 L581 -5 L566 -5 Q449 143 334 289.5 Q219 436 102 585 L102 55 L106 19 L106 0 L64 0 L64 19 Z " />
<glyph glyph-name="nacute" unicode="&#x144;" horiz-adv-x="454" d="M321 707 L361 707 Q359 701 357 696 Q355 687 347 676 L240 530 L234 530 L321 707 Z M372 320 Q372 368 336.5 396.5 Q301 425 241 425 Q192 425 156 407.5 Q120 390 92 361 L92 50 L95 18 L95 0 L50 0 L50 18 L52 50 L52 361 Q52 369 51 379 Q51 388 51 400 Q51 412 50 427 L50 445 L82 460 L90 460 L92 376 Q128 414 170 437 Q212 460 263 460 Q330 460 371 428 Q412 396 412 343 L412 50 L414 18 L414 0 L369 0 L369 18 L372 50 L372 320 Z " />
<glyph glyph-name="Ncaron" unicode="&#x147;" horiz-adv-x="643" d="M327 711 L203 868 L209 868 L334 752 L465 868 L470 868 L471 869 L471 868 L470 868 L342 711 L327 711 Z M566 -5 Q449 143 334 289.5 Q219 436 102 585 L102 55 L106 19 L106 0 L64 0 L64 19 L67 55 L67 605 L64 641 L64 660 L102 660 L546 93 L546 605 L542 641 L542 660 L584 660 L584 641 L581 605 L581 -5 L566 -5 Z " />
<glyph glyph-name="ncaron" unicode="&#x148;" horiz-adv-x="454" d="M101 710 L107 710 L233 582 L363 710 L369 710 L240 535 L225 535 L101 710 Z M372 320 Q372 368 336.5 396.5 Q301 425 241 425 Q192 425 156 407.5 Q120 390 92 361 L92 50 L95 18 L95 0 L50 0 L50 18 L52 50 L50 445 L82 460 L90 460 L92 376 Q128 414 170 437 Q212 460 263 460 Q330 460 371 428 Q412 396 412 343 L412 50 L414 18 L414 0 L369 0 L369 18 L372 50 L372 320 Z " />
<glyph glyph-name="Omacron" unicode="&#x14c;" horiz-adv-x="795" d="M516 793 L516 768 L250 768 L250 793 L516 793 Z M70 333 Q70 409 93.5 471 Q117 533 160 577.5 Q203 622 263.5 646 Q324 670 398 670 Q472 670 532 645.5 Q592 621 635 576 Q678 531 701.5 468 Q725 405 725 328 Q725 252 701.5 189.5 Q678 127 635 83 Q592 39 532 14.5 Q472 -10 398 -10 Q324 -10 263.5 14.5 Q203 39 160 84 Q117 129 93.5 192.5 Q70 256 70 333 Z M389 646 Q328 646 278 625 Q228 604 192.5 565 Q157 526 137.5 471.5 Q118 417 118 350 Q118 275 139 213 Q160 151 198 107 Q236 63 289.5 39 Q343 15 408 15 Q468 15 518 36 Q568 57 603 96 Q638 135 657.5 189.5 Q677 244 677 311 Q677 386 656.5 448 Q636 510 598 554 Q560 598 507 622 Q454 646 389 646 Z " />
<glyph glyph-name="omacron" unicode="&#x14d;" horiz-adv-x="527" d="M397 623 L397 598 L131 598 L131 623 L397 623 Z M50 225 Q50 278 63.5 321.5 Q77 365 104 395.5 Q131 426 171 443 Q211 460 264 460 Q312 460 351.5 443 Q391 426 418.5 395.5 Q446 365 461.5 321.5 Q477 278 477 225 Q477 172 463.5 128.5 Q450 85 423.5 54.5 Q397 24 357 7 Q317 -10 264 -10 Q216 -10 176.5 7 Q137 24 109 54.5 Q81 85 65.5 128.5 Q50 172 50 225 Z M257 439 Q217 439 187 423.5 Q157 408 137 380 Q117 352 106.5 312.5 Q96 273 96 225 Q96 177 108.5 137.5 Q121 98 144 70 Q167 42 199 26.5 Q231 11 270 11 Q350 11 390.5 70 Q431 129 431 225 Q431 273 418.5 312.5 Q406 352 383 380 Q360 408 328 423.5 Q296 439 257 439 Z " />
<glyph glyph-name="Racute" unicode="&#x154;" horiz-adv-x="529" d="M330 864 L370 864 Q368 859 366 854 Q363 845 356 836 L249 705 L243 705 L330 864 Z M67 606 L64 642 L64 661 L232 661 Q281 661 321.5 649 Q362 637 390.5 614.5 Q419 592 435 560.5 Q451 529 451 491 Q451 457 433.5 428 Q416 399 387.5 377 Q359 355 324.5 340.5 Q290 326 255 320 Q319 238 384.5 157 Q450 76 522 1 L456 -1 L201 317 L112 317 L112 56 L115 20 L115 1 L64 1 L64 20 L67 56 L67 606 Z M111 345 L200 345 Q232 345 267.5 355 Q303 365 333 384 Q363 403 382.5 429 Q402 455 402 487 Q402 520 389 547 Q376 574 352 593 Q328 612 294.5 622.5 Q261 633 220 633 Q220 633 208 633.5 Q196 634 179 634 L111 634 L111 345 Z " />
<glyph glyph-name="racute" unicode="&#x155;" horiz-adv-x="268" d="M157 530 L244 707 L284 707 Q282 701 280 696 Q278 687 270 676 L163 530 L157 530 Z M186 460 Q195 460 208.5 456.5 Q222 453 235 448.5 Q248 444 257 438.5 Q266 433 266 427 Q266 420 263.5 411 Q261 402 257 394 L250 394 Q242 397 235 400 Q221 407 212 410 Q200 415 186 418 Q172 421 160 421 Q147 421 129.5 400.5 Q112 380 91 345 L91 50 L94 18 L94 0 L49 0 L49 18 L51 50 L49 427 L49 445 L81 460 L89 460 L92 362 Q119 406 142.5 432.5 Q166 459 184 460 L186 460 Z " />
<glyph glyph-name="Rcaron" unicode="&#x158;" horiz-adv-x="529" d="M259 711 L244 711 L120 868 L126 868 L251 752 L382 868 L387 868 L388 869 L388 868 L387 868 L259 711 Z M456 -1 L201 317 L112 317 L112 56 L115 20 L115 1 L64 1 L64 20 L67 56 L67 606 L64 642 L64 661 L232 661 Q281 661 321.5 649 Q362 637 390.5 614.5 Q419 592 435 560.5 Q451 529 451 491 Q451 457 433.5 428 Q416 399 387.5 377 Q359 355 324.5 340.5 Q290 326 255 320 Q319 238 384.5 157 Q450 76 522 1 L456 -1 Z M111 345 L200 345 Q232 345 267.5 355 Q303 365 333 384 Q363 403 382.5 429 Q402 455 402 487 Q402 520 389 547 Q376 574 352 593 Q328 612 294.5 622.5 Q261 633 220 633 Q220 633 208 633.5 Q196 634 179 634 L111 634 L111 345 Z " />
<glyph glyph-name="rcaron" unicode="&#x159;" horiz-adv-x="268" d="M163 535 L148 535 L24 710 L30 710 L156 582 L286 710 L292 710 L163 535 Z M186 460 Q195 460 208.5 456.5 Q222 453 235 448.5 Q248 444 257 438.5 Q266 433 266 427 Q266 420 263.5 411 Q261 402 257 394 L250 394 Q242 397 235 400 Q221 407 212 410 Q200 415 186 418 Q172 421 160 421 Q147 421 129.5 400.5 Q112 380 91 345 L91 50 L94 18 L94 0 L49 0 L49 18 L51 50 L51 361 L49 445 L81 460 L89 460 Q90 443 90 428 Q91 414 91.5 400 Q92 386 92 375 L92 362 Q119 406 142.5 432.5 Q166 459 184 460 L186 460 Z " />
<glyph glyph-name="Sacute" unicode="&#x15a;" horiz-adv-x="506" d="M87 493 Q87 533 100 565.5 Q113 598 136.5 621 Q160 644 193 656.5 Q226 669 266 669 Q305 669 345.5 656.5 Q386 644 413 623 L416 572 L395 571 Q342 630 314.5 637.5 Q287 645 261 645 Q201 645 165.5 608 Q130 571 130 510 Q130 456 167.5 420.5 Q205 385 279 361 Q364 333 407 290 Q450 247 450 179 Q450 136 436.5 101 Q423 66 398.5 41 Q374 16 339 2.5 Q304 -11 262 -11 Q220 -11 168 2.5 Q116 16 71 38 L68 106 L89 107 Q98 95 108 81 Q118 67 127 55 Q129 52 132 50 Q173 33 208 23 Q243 13 263 13 Q295 13 321.5 24 Q348 35 367 55.5 Q386 76 396.5 104.5 Q407 133 407 167 Q407 225 366.5 263 Q326 301 245 327 Q167 353 127 392 Q87 431 87 493 Z M321 864 L361 864 Q359 859 357 854 Q354 845 347 836 L240 705 L234 705 L321 864 Z " />
<glyph glyph-name="sacute" unicode="&#x15b;" horiz-adv-x="410" d="M75 48 Q99 36 124 25 Q149 14 176 9 Q178 9 180 9 Q182 8 187 8 Q192 7 198 7 Q246 7 275.5 33 Q305 59 305 101 Q305 137 275.5 164.5 Q246 192 188 215 Q132 238 104 266 Q76 294 76 336 Q76 392 110 425.5 Q144 459 200 459 Q227 459 261.5 448.5 Q296 438 325 421 L323 397 L298 409 Q277 420 249 430.5 Q221 441 197 441 Q159 441 135 415.5 Q111 390 111 352 Q111 318 137.5 293 Q164 268 218 247 Q279 223 309.5 191.5 Q340 160 340 115 Q340 58 301.5 24 Q263 -10 200 -10 Q168 -10 130 -1 Q92 8 60 23 L61 34 L61 48 L75 48 Z M198 530 L285 707 L325 707 Q323 701 321 696 Q319 687 311 676 L204 530 L198 530 Z " />
<glyph glyph-name="Scedilla" unicode="&#x15e;" horiz-adv-x="506" d="M396 572 Q392 577 377.5 592.5 Q363 608 343.5 623.5 Q324 639 302.5 643 Q281 647 263 647 Q203 647 167.5 610 Q132 573 132 512 Q132 458 169.5 422.5 Q207 387 281 363 Q366 335 409 292 Q452 249 452 181 Q452 140 439.5 105.5 Q427 71 404 46.5 Q381 22 348.5 7.5 Q316 -7 276 -9 L231 -108 Q276 -123 302 -142.5 Q328 -162 328 -179 Q328 -207 311 -223.5 Q294 -240 266 -240 Q243 -240 220 -233 Q197 -226 182 -215 L182 -210 Q192 -218 213 -222 Q234 -226 259 -226 Q277 -226 288 -215 Q299 -204 299 -187 Q299 -177 276.5 -163.5 Q254 -150 217 -138 L202 -131 L258 -10 Q216 -9 165.5 4.5 Q115 18 72 39 L69 107 Q71 107 74 107.5 Q77 108 79 108 L90 108 Q99 96 109 82 Q119 68 128 56 Q130 53 133 51 Q174 34 209 24 Q244 14 264 14 Q296 14 322.5 25 Q349 36 368 56.5 Q387 77 397.5 105.5 Q408 134 408 168 Q408 226 367.5 264 Q327 302 246 328 Q168 354 128 393 Q88 432 88 494 Q88 534 101 566.5 Q114 599 137.5 622 Q161 645 194 657.5 Q227 670 267 670 Q306 670 346.5 657.5 Q387 645 414 624 L417 573 L396 572 Z " />
<glyph glyph-name="scedilla" unicode="&#x15f;" horiz-adv-x="410" d="M298 409 Q277 420 249 430.5 Q221 441 197 441 Q159 441 135 415.5 Q111 390 111 352 Q111 318 137.5 293 Q164 268 218 247 Q279 223 309.5 191.5 Q340 160 340 115 Q340 61 305 27.5 Q270 -6 212 -10 Q210 -13 203 -29 Q196 -45 188 -62 Q179 -83 167 -108 Q212 -123 238 -142.5 Q264 -162 264 -179 Q264 -207 247 -223.5 Q230 -240 202 -240 Q179 -240 156 -233 Q133 -226 118 -215 L118 -210 Q128 -218 149 -222 Q170 -226 195 -226 Q213 -226 224 -215 Q235 -204 235 -187 Q235 -177 212.5 -163.5 Q190 -150 153 -138 L138 -131 Q161 -82 175.5 -50 Q190 -18 194 -10 Q163 -9 126.5 0 Q90 9 60 23 L61 33 L61 47 L75 47 Q99 35 124 24 Q149 13 176 8 Q178 8 180 8 Q182 7 187 7 Q192 6 198 6 Q246 6 275.5 32 Q305 58 305 100 Q305 136 275.5 163.5 Q246 191 188 214 Q132 237 104 265 Q76 293 76 335 Q76 391 110 424.5 Q144 458 200 458 Q227 458 261.5 447.5 Q296 437 325 420 L323 396 L298 409 Z " />
<glyph glyph-name="Scaron" unicode="&#x160;" horiz-adv-x="506" d="M416 572 L395 571 Q338 632 313.5 638.5 Q289 645 261 645 Q201 645 165.5 608 Q130 571 130 510 Q130 456 167.5 420.5 Q205 385 279 361 Q364 333 407 290 Q450 247 450 179 Q450 136 436.5 101 Q423 66 398.5 41 Q374 16 339 2.5 Q304 -11 262 -11 Q220 -11 168 2.5 Q116 16 71 38 L68 106 L89 107 Q91 104 97.5 95 Q104 86 111 76.5 Q118 67 124 59 Q130 51 132 50 Q173 33 208 23 Q243 13 263 13 Q295 13 321.5 24 Q348 35 367 55.5 Q386 76 396.5 104.5 Q407 133 407 167 Q407 225 366.5 263 Q326 301 245 327 Q167 353 127 392 Q87 431 87 493 Q87 533 100 565.5 Q113 598 136.5 621 Q160 644 193 656.5 Q226 669 266 669 Q305 669 345.5 656.5 Q386 644 413 623 L416 572 Z M384 868 L383 868 L255 711 L240 711 L116 868 L122 868 L247 752 L378 868 L383 868 L384 869 L384 868 Z " />
<glyph glyph-name="scaron" unicode="&#x161;" horiz-adv-x="410" d="M218 247 Q279 223 309.5 191.5 Q340 160 340 115 Q340 58 301.5 24 Q263 -10 200 -10 Q168 -10 130 -1 Q92 8 60 23 L61 34 L61 48 L75 48 Q99 36 124 25 Q149 14 176 9 Q178 9 180 9 Q182 8 187 8 Q192 7 198 7 Q246 7 275.5 33 Q305 59 305 101 Q305 137 275.5 164.5 Q246 192 188 215 Q132 238 104 266 Q76 294 76 336 Q76 392 110 425.5 Q144 459 200 459 Q227 459 261.5 448.5 Q296 438 325 421 L323 397 Q295 411 262 426 Q229 441 197 441 Q159 441 135 415.5 Q111 390 111 352 Q111 318 137.5 293 Q164 268 218 247 Z M333 710 L204 535 L189 535 L65 710 L71 710 L197 582 L327 710 L333 710 Z " />
<glyph glyph-name="Tcaron" unicode="&#x164;" horiz-adv-x="675" d="M212 868 L337 752 L468 868 L473 868 L474 869 L474 868 L473 868 L345 711 L330 711 L206 868 L212 868 Z M315 55 L315 633 L125 633 L63 628 L45 628 L45 660 L630 660 L630 628 L612 628 L550 633 L360 633 L360 55 L364 19 L364 0 L311 0 L311 19 L315 55 Z " />
<glyph glyph-name="tcaron" unicode="&#x165;" horiz-adv-x="309" d="M239 750 L282 750 L223 563 L217 563 L239 750 Z M95 450 L132 545 L135 545 L135 450 L267 450 L267 427 L135 427 L135 99 Q135 64 155.5 42 Q176 20 211 20 Q233 20 251.5 30.5 Q270 41 278 58 L279 54 Q265 25 238.5 7.5 Q212 -10 183 -10 Q143 -10 119 17.5 Q95 45 95 90 L95 427 L18 427 L18 430 L95 450 Z " />
<glyph glyph-name="Utilde" unicode="&#x168;" horiz-adv-x="658" d="M184 705 Q198 749 217 776.5 Q236 804 278 804 Q292 804 308.5 795 Q325 786 341.5 775 Q358 764 374 755 Q390 746 404 746 Q439 746 453.5 766 Q468 786 479 818 L486 818 Q471 772 452 744 Q433 716 392 716 Q378 716 362 725 Q346 734 329.5 745.5 Q313 757 296.5 766 Q280 775 266 775 Q248 775 236 770 Q224 765 216 756 Q208 747 202 734 Q196 721 191 705 L184 705 Z M124 242 Q124 192 140 151 Q156 110 185.5 80.5 Q215 51 256.5 35 Q298 19 349 19 Q396 19 434 33.5 Q472 48 499 75 Q526 102 541 139.5 Q556 177 556 223 L556 605 L552 641 L552 660 L594 660 L594 641 L591 605 L591 234 Q591 179 572.5 134 Q554 89 520.5 57 Q487 25 440 7.5 Q393 -10 335 -10 Q277 -10 230 7.5 Q183 25 149.5 57 Q116 89 97.5 134 Q79 179 79 234 L79 605 L76 641 L76 660 L127 660 L127 641 L124 605 L124 242 Z " />
<glyph glyph-name="utilde" unicode="&#x169;" horiz-adv-x="416" d="M52 535 Q66 579 85 606.5 Q104 634 146 634 Q160 634 176.5 625 Q193 616 209.5 605 Q226 594 242 585 Q258 576 272 576 Q307 576 321.5 596 Q336 616 347 648 L354 648 Q339 602 320 574 Q301 546 260 546 Q246 546 230 555 Q214 564 197.5 575.5 Q181 587 164.5 596 Q148 605 134 605 Q116 605 104 600 Q92 595 84 586 Q76 577 70 564 Q64 551 59 535 L52 535 Z M68 131 Q68 83 103.5 54.5 Q139 26 197 26 Q233 26 272.5 43.5 Q312 61 348 96 L348 400 L345 432 L345 450 L388 450 L388 50 L391 18 L391 0 L348 0 L348 80 Q302 35 256.5 12.5 Q211 -10 174 -10 Q108 -10 68 22 Q28 54 28 107 L28 400 L26 432 L26 450 L68 450 L68 131 Z " />
<glyph glyph-name="Umacron" unicode="&#x16a;" horiz-adv-x="658" d="M212 768 L212 793 L478 793 L478 768 L212 768 Z M76 641 L76 660 L127 660 L127 641 L124 605 L124 242 Q124 192 140 151 Q156 110 185.5 80.5 Q215 51 256.5 35 Q298 19 349 19 Q396 19 434 33.5 Q472 48 499 75 Q526 102 541 139.5 Q556 177 556 223 L556 605 L552 641 L552 660 L594 660 L594 641 L591 605 L591 234 Q591 179 572.5 134 Q554 89 520.5 57 Q487 25 440 7.5 Q393 -10 335 -10 Q277 -10 230 7.5 Q183 25 149.5 57 Q116 89 97.5 134 Q79 179 79 234 L79 605 L76 641 Z " />
<glyph glyph-name="umacron" unicode="&#x16b;" horiz-adv-x="416" d="M70 623 L336 623 L336 598 L70 598 L70 623 Z M26 450 L68 450 L68 131 Q68 83 103.5 54.5 Q139 26 197 26 Q233 26 272.5 43.5 Q312 61 348 96 L348 400 L345 432 L345 450 L388 450 L388 50 L391 18 L391 0 L348 0 L348 80 Q302 35 256.5 12.5 Q211 -10 174 -10 Q108 -10 68 22 Q28 54 28 107 L28 400 L26 432 L26 450 Z " />
<glyph glyph-name="Uring" unicode="&#x16e;" horiz-adv-x="658" d="M261 787 Q261 822 283 842.5 Q305 863 340 863 Q375 863 397 842.5 Q419 822 419 788 Q419 772 412.5 758 Q406 744 395.5 733.5 Q385 723 370.5 716.5 Q356 710 340 710 Q324 710 309.5 716 Q295 722 284.5 732.5 Q274 743 267.5 757 Q261 771 261 787 Z M339 851 Q315 851 300.5 834.5 Q286 818 286 790 Q286 762 302.5 742 Q319 722 342 722 Q364 722 379.5 740.5 Q395 759 395 784 Q395 814 380 832.5 Q365 851 339 851 Z M556 605 L552 641 L552 660 L594 660 L594 641 L591 605 L591 234 Q591 179 572.5 134 Q554 89 520.5 57 Q487 25 440 7.5 Q393 -10 335 -10 Q277 -10 230 7.5 Q183 25 149.5 57 Q116 89 97.5 134 Q79 179 79 234 L79 605 L76 641 L76 660 L127 660 L127 641 L124 605 L124 242 Q124 192 140 151 Q156 110 185.5 80.5 Q215 51 256.5 35 Q298 19 349 19 Q396 19 434 33.5 Q472 48 499 75 Q526 102 541 139.5 Q556 177 556 223 L556 605 Z " />
<glyph glyph-name="uring" unicode="&#x16f;" horiz-adv-x="416" d="M203 535 Q187 535 172.5 541 Q158 547 147.5 557.5 Q137 568 130.5 582 Q124 596 124 612 Q124 647 146 667.5 Q168 688 203 688 Q238 688 260 667.5 Q282 647 282 613 Q282 597 275.5 583 Q269 569 258.5 558.5 Q248 548 233.5 541.5 Q219 535 203 535 Z M202 676 Q178 676 163.5 659.5 Q149 643 149 615 Q149 587 165.5 567 Q182 547 205 547 Q227 547 242.5 565.5 Q258 584 258 609 Q258 639 243 657.5 Q228 676 202 676 Z M348 0 L348 80 Q302 35 256.5 12.5 Q211 -10 174 -10 Q108 -10 68 22 Q28 54 28 107 L28 400 L26 432 L26 450 L68 450 L68 131 Q68 83 103.5 54.5 Q139 26 197 26 Q233 26 272.5 43.5 Q312 61 348 96 L348 400 L345 432 L345 450 L388 450 L388 50 L391 18 L391 0 L348 0 Z " />
<glyph glyph-name="Ydieresis" unicode="&#x178;" horiz-adv-x="656" d="M432 760 Q432 748 424.5 741.5 Q417 735 407 735 Q398 735 390 741.5 Q382 748 382 760 Q382 773 390 779 Q398 785 407 785 Q417 785 424.5 779 Q432 773 432 760 Z M292 760 Q292 748 284.5 741.5 Q277 735 267 735 Q258 735 250 741.5 Q242 748 242 760 Q242 773 250 779 Q258 785 267 785 Q277 785 284.5 779 Q292 773 292 760 Z M312 20 L315 56 L315 303 L35 660 L89 660 L94 651 Q96 648 97.5 645 Q99 642 99 641 Q162 563 223 486 Q284 409 346 331 L551 611 Q562 625 565.5 630 Q569 635 570.5 637 Q572 639 573 641 Q574 643 578 650 L583 660 L621 660 Q620 658 618 656 Q617 654 615.5 652 Q614 650 612 646 L592 620 Q533 541 475.5 462 Q418 383 360 304 L360 56 L363 20 L363 1 L312 1 L312 20 Z " />
<glyph glyph-name="Zacute" unicode="&#x179;" horiz-adv-x="646" d="M329 705 L416 864 L456 864 Q454 859 452 854 Q449 845 442 836 L335 705 L329 705 Z M98 0 L98 13 L479 633 L190 633 L128 628 L110 628 L110 660 L541 660 L541 657 Q443 500 347.5 343 Q252 186 155 28 L476 28 L538 33 L556 33 L556 0 L98 0 Z " />
<glyph glyph-name="zacute" unicode="&#x17a;" horiz-adv-x="480" d="M333 707 L373 707 Q371 701 369 696 Q367 687 359 676 L252 530 L246 530 L333 707 Z M406 27 L405 0 L80 0 L80 9 L332 428 L138 428 L105 424 L88 424 Q88 428 88.5 432 Q89 436 89 439 L90 439 L90 450 L397 450 L379 428 L134 23 L356 23 L389 27 L406 27 Z " />
<glyph glyph-name="Zdotaccent" unicode="&#x17b;" horiz-adv-x="646" d="M307 755 Q307 770 316.5 777 Q326 784 337 784 Q348 784 357.5 777 Q367 770 367 755 Q367 741 357.5 733.5 Q348 726 337 726 Q326 726 316.5 733.5 Q307 741 307 755 Z M98 13 L479 633 L190 633 L128 628 L110 628 L110 660 L541 660 L541 657 Q443 500 347.5 343 Q252 186 155 28 L476 28 L538 33 L556 33 L556 0 L98 0 L98 13 Z " />
<glyph glyph-name="zdotaccent" unicode="&#x17c;" horiz-adv-x="480" d="M280 613 Q280 599 270.5 591.5 Q261 584 250 584 Q239 584 229.5 591.5 Q220 599 220 613 Q220 628 229.5 635 Q239 642 250 642 Q261 642 270.5 635 Q280 628 280 613 Z M332 428 L138 428 L105 424 L88 424 L90 450 L397 450 L379 428 L134 23 L356 23 L389 27 L406 27 L405 0 L80 0 L80 9 L332 428 Z " />
<glyph glyph-name="Zcaron" unicode="&#x17d;" horiz-adv-x="646" d="M342 752 L473 868 L478 868 L479 869 L479 868 L478 868 L350 711 L335 711 L211 868 L217 868 L342 752 Z M110 628 L110 660 L541 660 L541 657 Q443 500 347.5 343 Q252 186 155 28 L476 28 L538 33 L556 33 L556 0 L98 0 L98 13 L479 633 L190 633 L128 628 L110 628 Z " />
<glyph glyph-name="zcaron" unicode="&#x17e;" horiz-adv-x="480" d="M113 710 L119 710 L245 582 L375 710 L381 710 L252 535 L237 535 L113 710 Z M406 27 L405 0 L80 0 L80 9 L332 428 L138 428 L105 424 L88 424 L90 450 L397 450 L379 428 L134 23 L356 23 L389 27 L406 27 Z " />
<glyph glyph-name="uni01EB" unicode="&#x1eb;" horiz-adv-x="734" d="M391 -9 Q388 -9 385 -9 L373 -10 Q370 -10 367 -10 Q300 -10 245 11.5 Q190 33 151 72 Q112 111 91 165.5 Q70 220 70 286 Q70 351 91.5 404 Q113 457 152 495 Q191 533 245.5 554 Q300 575 367 575 Q434 575 488.5 554 Q543 533 582 494 Q621 455 642.5 401 Q664 347 664 281 Q664 224 648 176 Q632 128 602 91.5 Q572 55 529.5 30.5 Q487 6 434 -4 Q461 -13 489.5 -33 Q518 -53 546.5 -72.5 Q575 -92 603.5 -107 Q632 -122 657 -122 Q689 -122 697 -118 L697 -125 L698 -125 Q689 -130 670 -133.5 Q651 -137 630 -137 Q603 -137 573 -121.5 Q543 -106 512 -85 Q481 -64 450.5 -42.5 Q420 -21 391 -9 Z M114 301 Q114 236 133 183 Q152 130 186.5 92 Q221 54 269.5 33.5 Q318 13 377 13 Q432 13 477 31 Q522 49 554.5 82 Q587 115 604.5 161.5 Q622 208 622 265 Q622 330 603 383 Q584 436 549.5 474 Q515 512 467 532.5 Q419 553 360 553 Q305 553 259.5 535 Q214 517 181.5 484 Q149 451 131.5 404.5 Q114 358 114 301 Z " />
<glyph glyph-name="uni0262" unicode="&#x262;" horiz-adv-x="640" d="M71 269 Q71 338 93.5 394 Q116 450 157.5 490 Q199 530 257 552 Q315 574 386 574 Q445 574 497.5 560.5 Q550 547 576 525 L577 495 Q572 495 568.5 494.5 Q565 494 561 494 Q546 503 530 514 Q514 525 497 532 Q471 542 443 547.5 Q415 553 386 553 Q325 553 274.5 533.5 Q224 514 188 479 Q152 444 132.5 394 Q113 344 113 284 Q113 224 132 175 Q151 126 186 90.5 Q221 55 269.5 36 Q318 17 378 17 Q431 17 476.5 30.5 Q522 44 548 67 L548 193 L545 229 L545 248 L591 248 L591 229 L588 193 L589 74 Q573 55 549 39.5 Q525 24 495.5 12.5 Q466 1 433 -5 Q400 -11 366 -11 Q300 -11 245.5 9 Q191 29 152 66 Q113 103 92 154.5 Q71 206 71 269 Z " />
<glyph glyph-name="uni026A" unicode="&#x26a;" horiz-adv-x="185" d="M116 565 L116 546 L113 510 L113 55 L116 19 L116 0 L70 0 L70 19 L73 55 L73 510 L70 546 L70 565 L116 565 Z " />
<glyph glyph-name="uni0274" unicode="&#x274;" horiz-adv-x="582" d="M98 566 L488 84 L488 511 L484 547 L484 566 L523 566 L523 547 L520 511 L520 -4 L506 -4 L98 500 L98 55 L102 19 L102 0 L64 0 L64 19 L67 55 L67 510 L64 546 L64 566 L98 566 Z " />
<glyph glyph-name="uni0280" unicode="&#x280;" horiz-adv-x="466" d="M67 57 L67 512 L64 548 L64 567 L206 567 Q247 567 281 556.5 Q315 546 339 526.5 Q363 507 376 480 Q389 453 389 420 Q389 391 374 366.5 Q359 342 335.5 323.5 Q312 305 283 292.5 Q254 280 225 275 L409 52 L458 2 L400 1 L176 272 L107 272 L107 57 L110 21 L110 2 L64 2 L64 21 L67 57 Z M108 540 L108 295 L177 295 Q204 295 233.5 303.5 Q263 312 288 328 Q313 344 329.5 366 Q346 388 346 415 Q346 472 305 506 Q264 540 197 540 L108 540 Z " />
<glyph glyph-name="uni028F" unicode="&#x28f;" horiz-adv-x="595" d="M49 545 Q46 550 43.5 553.5 Q41 557 39 559 Q36 562 34 565 L84 565 Q86 560 90 554.5 Q94 549 96 546 L314 286 L514 546 Q519 555 521.5 559 Q524 563 525 565 L559 565 L557 561 Q555 559 550 551 Q492 479 437 406 Q382 333 325 260 L325 55 L328 19 L328 0 L282 0 L282 19 L285 55 L285 259 L75 515 L49 545 Z " />
<glyph glyph-name="uni0299" unicode="&#x299;" horiz-adv-x="507" d="M63 -1 L63 18 L66 54 L66 509 L63 545 L63 564 L209 564 Q303 564 350.5 527.5 Q398 491 398 431 Q398 386 365 353 Q332 320 273 303 Q364 292 409.5 254 Q455 216 455 160 Q455 124 437 94 Q419 64 387 43 Q355 22 309.5 10.5 Q264 -1 208 -1 L63 -1 Z M107 540 L107 307 L184 307 Q262 311 309 342 Q356 373 356 421 Q356 475 317 507.5 Q278 540 200 540 L107 540 Z M106 24 L208 24 Q254 24 291.5 33.5 Q329 43 356 60.5 Q383 78 397.5 102 Q412 126 412 156 Q412 213 362.5 247.5 Q313 282 215 282 L106 282 L106 24 Z " />
<glyph glyph-name="uni029C" unicode="&#x29c;" horiz-adv-x="583" d="M476 303 L476 510 L473 546 L473 565 L519 565 L519 546 L516 510 L516 55 L519 19 L519 0 L473 0 L473 19 L476 55 L476 279 L108 279 L108 55 L111 19 L111 0 L65 0 L65 19 L68 55 L68 510 L65 546 L65 565 L111 565 L111 546 L108 510 L108 303 L476 303 Z " />
<glyph glyph-name="uni029F" unicode="&#x29f;" horiz-adv-x="493" d="M68 55 L68 510 L65 546 L65 565 L111 565 L111 546 L108 510 L108 25 L343 25 L405 31 L423 31 L423 0 L65 0 L65 19 L68 55 Z " />
<glyph glyph-name="circumflex" unicode="&#x2c6;" horiz-adv-x="340" d="M163 705 L178 705 L307 530 L301 530 L171 658 L45 530 L39 530 L163 705 Z " />
<glyph glyph-name="caron" unicode="&#x2c7;" horiz-adv-x="340" d="M45 710 L171 582 L301 710 L307 710 L178 535 L163 535 L39 710 L45 710 Z " />
<glyph glyph-name="uni02C9" unicode="&#x2c9;" horiz-adv-x="340" d="M37 558 L303 558 L303 533 L37 533 L37 558 Z " />
<glyph glyph-name="breve" unicode="&#x2d8;" horiz-adv-x="340" d="M39 694 Q56 640 86 617 Q116 594 170 594 Q224 594 254 617 Q284 640 301 694 L308 694 Q285 622 253 591 Q221 560 170 560 Q119 560 87 591 Q55 622 32 694 L39 694 Z " />
<glyph glyph-name="dotaccent" unicode="&#x2d9;" horiz-adv-x="340" d="M145 635 Q145 648 153 654 Q161 660 170 660 Q180 660 187.5 654 Q195 648 195 635 Q195 623 187.5 616.5 Q180 610 170 610 Q161 610 153 616.5 Q145 623 145 635 Z " />
<glyph glyph-name="ring" unicode="&#x2da;" horiz-adv-x="340" d="M170 530 Q154 530 139.5 536 Q125 542 114.5 552.5 Q104 563 97.5 577 Q91 591 91 607 Q91 642 113 662.5 Q135 683 170 683 Q205 683 227 662.5 Q249 642 249 608 Q249 592 242.5 578 Q236 564 225.5 553.5 Q215 543 200.5 536.5 Q186 530 170 530 Z M116 610 Q116 582 132.5 562 Q149 542 172 542 Q194 542 209.5 560.5 Q225 579 225 604 Q225 634 210 652.5 Q195 671 169 671 Q145 671 130.5 654.5 Q116 638 116 610 Z " />
<glyph glyph-name="uni1D00" unicode="&#x1d00;" horiz-adv-x="588" d="M70 19 Q69 16 67.5 9 Q66 2 66 0 L32 0 L37 15 L53 49 L281 569 L300 569 L531 44 L547 14 L552 -1 L505 -1 Q504 2 502.5 9 Q501 16 501 18 L414 216 L155 216 L70 19 Z M165 241 L403 241 L283 514 L165 241 Z " />
<glyph glyph-name="uni1D04" unicode="&#x1d04;" horiz-adv-x="652" d="M361 -8 Q295 -8 241 12 Q187 32 148.5 69 Q110 106 89 157.5 Q68 209 68 272 Q68 341 90 397 Q112 453 152 493 Q192 533 248 555 Q304 577 372 577 Q400 577 426.5 573.5 Q453 570 477 563.5 Q501 557 520.5 548 Q540 539 553 528 L554 498 L538 497 Q516 510 498 520.5 Q480 531 461.5 538.5 Q443 546 422 550 Q401 554 374 554 Q315 554 267 534.5 Q219 515 184.5 480 Q150 445 131 395 Q112 345 112 285 Q112 224 130 174 Q148 124 181 88.5 Q214 53 260 33.5 Q306 14 363 14 Q392 14 415.5 18.5 Q439 23 460.5 31 Q482 39 503 50 Q524 61 548 73 L564 72 L562 42 Q528 19 473 5.5 Q418 -8 361 -8 Z " />
<glyph glyph-name="uni1D05" unicode="&#x1d05;" horiz-adv-x="626" d="M65 565 L224 565 Q299 565 360 548.5 Q421 532 464.5 499 Q508 466 532 417 Q556 368 556 303 Q556 231 532.5 175.5 Q509 120 466 82 Q423 44 363 23.5 Q303 3 229 0 L65 0 L65 19 L68 55 L68 510 L65 546 L65 565 Z M108 25 L227 25 Q291 27 343.5 45 Q396 63 433.5 96 Q471 129 491.5 177 Q512 225 512 288 Q512 351 490.5 398 Q469 445 429.5 477 Q390 509 335 525 Q280 541 212 541 Q212 541 201 540.5 Q190 540 174 540 L108 540 L108 25 Z " />
<glyph glyph-name="uni1D07" unicode="&#x1d07;" horiz-adv-x="513" d="M69 55 L69 510 L66 546 L66 565 L419 565 L419 536 L402 536 L344 540 L109 540 L109 303 L269 303 Q301 306 333 306 L333 276 L310 276 Q265 280 220 280 Q215 280 187 279.5 Q159 279 108 279 L108 25 L368 25 L426 30 L443 30 L444 0 L66 0 L66 19 L69 55 Z " />
<glyph glyph-name="uni1D0A" unicode="&#x1d0a;" horiz-adv-x="185" d="M-12 -173 Q-21 -173 -24.5 -168 Q-28 -163 -28 -157 Q-28 -156 -27.5 -152 Q-27 -148 -25 -142 Q-23 -136 -22 -136 Q-20 -135 -17 -135 Q-16 -135 -13 -135.5 Q-10 -136 -6 -137 Q-2 -138 3 -140 Q35 -140 54 -88 Q73 -36 73 50 L73 510 L70 546 L70 565 L116 565 L116 546 L113 510 L113 208 Q113 176 113.5 156.5 Q114 137 114 137 Q114 67 105 10 Q96 -47 79.5 -87.5 Q63 -128 40 -150.5 Q17 -173 -12 -173 Z " />
<glyph glyph-name="uni1D0B" unicode="&#x1d0b;" horiz-adv-x="541" d="M65 57 L65 512 L62 548 L62 567 L109 567 L109 548 L106 512 L106 57 L109 21 L109 2 L62 2 L62 21 L65 57 Z M379 548 Q382 550 387.5 557 Q393 564 395 566 L444 566 L428 550 L150 303 L491 14 Q499 8 501 5 Q503 4 505 2 L443 2 L109 291 L379 548 Z " />
<glyph glyph-name="uni1D0D" unicode="&#x1d0d;" horiz-adv-x="747" d="M135 565 L379 50 L621 565 L662 565 L662 520 L683 55 L687 19 L687 0 L643 0 L642 19 L643 49 L623 511 L380 -5 L360 -5 L115 517 L93 55 L93 0 L61 0 L61 19 L66 53 L89 510 L89 565 L135 565 Z " />
<glyph glyph-name="uni1D0F" unicode="&#x1d0f;" horiz-adv-x="734" d="M367 -10 Q300 -10 245.5 11 Q191 32 152 71 Q113 110 91.5 164.5 Q70 219 70 286 Q70 351 91.5 404 Q113 457 152 495 Q191 533 245.5 554 Q300 575 367 575 Q434 575 488.5 554 Q543 533 582 494 Q621 455 642.5 401 Q664 347 664 281 Q664 215 642.5 161.5 Q621 108 582 70 Q543 32 488.5 11 Q434 -10 367 -10 Z M113 301 Q113 236 132 183 Q151 130 185.5 92 Q220 54 268.5 33.5 Q317 13 376 13 Q431 13 476 31 Q521 49 553.5 82 Q586 115 603.5 161.5 Q621 208 621 265 Q621 330 602 383 Q583 436 548.5 474 Q514 512 466 532.5 Q418 553 359 553 Q304 553 258.5 535 Q213 517 180.5 484 Q148 451 130.5 404.5 Q113 358 113 301 Z " />
<glyph glyph-name="uni1D18" unicode="&#x1d18;" horiz-adv-x="506" d="M65 19 L68 55 L68 510 L65 546 L65 565 L225 565 Q273 565 311.5 554 Q350 543 378 523.5 Q406 504 421 476 Q436 448 436 414 Q436 380 419 352 Q402 324 371 304.5 Q340 285 296.5 274 Q253 263 200 263 L108 263 L108 55 L111 19 L111 0 L65 0 L65 19 Z M108 540 L108 288 L209 288 Q292 288 342 321.5 Q392 355 392 410 Q392 469 343.5 504.5 Q295 540 215 540 L108 540 Z " />
<glyph glyph-name="uni1D1B" unicode="&#x1d1b;" horiz-adv-x="615" d="M45 565 L570 565 L570 535 L552 535 L490 540 L328 540 L328 55 L332 19 L332 0 L283 0 L283 19 L287 55 L287 540 L125 540 L63 535 L45 535 L45 565 Z " />
<glyph glyph-name="uni1D1C" unicode="&#x1d1c;" horiz-adv-x="598" d="M77 565 L123 565 L123 546 L120 510 L120 207 Q120 164 134 128.5 Q148 93 174 68 Q200 43 236.5 29.5 Q273 16 318 16 Q359 16 392.5 28.5 Q426 41 450 64 Q474 87 487 119 Q500 151 500 190 L499 510 Q499 510 498 515 Q497 520 496.5 526.5 Q496 533 495.5 539 Q495 545 495 546 L495 565 L534 565 L534 546 L531 510 L531 200 Q531 153 515 114 Q499 75 469.5 47.5 Q440 20 398.5 5 Q357 -10 306 -10 Q255 -10 213.5 5 Q172 20 142 47.5 Q112 75 96 114 Q80 153 80 200 L80 510 L77 546 L77 565 Z " />
<glyph glyph-name="uni1D20" unicode="&#x1d20;" horiz-adv-x="584" d="M42 548 Q41 549 41 549 Q40 553 39 556 Q38 559 37 561 L36 566 L82 566 Q82 565 84 556.5 Q86 548 87 547 L303 58 L510 547 Q510 547 512 557 Q513 561 514 566 L548 566 Q547 564 546 562 Q544 558 544 552 L304 -4 L285 -4 L42 548 Z " />
<glyph glyph-name="uni1D21" unicode="&#x1d21;" horiz-adv-x="803" d="M233 81 L402 570 L408 570 L605 81 L750 546 L750 547 Q750 549 750.5 556 Q751 563 752 566 L787 566 L786 563 Q786 559 785 556 Q784 552 784 551 Q784 551 784 551 Q784 551 785 552 L604 -4 L596 -4 L402 486 L229 -4 L221 -4 L19 547 Q20 546 20 546 Q20 546 20 547 Q20 547 19 550 Q18 553 15 565 L61 565 Q61 557 62.5 553 Q64 549 64 546 L233 81 Z " />
<glyph glyph-name="uni1D22" unicode="&#x1d22;" horiz-adv-x="586" d="M423 540 L192 540 L130 535 L112 535 L112 565 L481 565 L151 25 L416 25 L478 30 L496 30 L496 0 L100 0 L100 11 L423 540 Z " />
<glyph glyph-name="uni1EBC" unicode="&#x1ebc;" horiz-adv-x="573" d="M122 705 Q136 749 155 776.5 Q174 804 216 804 Q230 804 246.5 795 Q263 786 279.5 775 Q296 764 312 755 Q328 746 342 746 Q377 746 391.5 766 Q406 786 417 818 L424 818 Q409 772 390 744 Q371 716 330 716 Q316 716 300 725 Q284 734 267.5 745.5 Q251 757 234.5 766 Q218 775 204 775 Q186 775 174 770 Q162 765 154 756 Q146 747 140 734 Q134 721 129 705 L122 705 Z M328 354 Q360 357 392 357 L392 323 L369 323 L113 326 L113 28 L428 28 L486 33 L503 33 L503 0 L65 0 L65 19 L68 55 L68 605 L65 641 L65 660 L478 660 L478 629 L461 629 L113 633 L113 354 L328 354 Z " />
<glyph glyph-name="endash" unicode="&#x2013;" horiz-adv-x="500" d="M50 280 L450 280 L450 255 L50 255 L50 280 Z " />
<glyph glyph-name="emdash" unicode="&#x2014;" horiz-adv-x="1000" d="M50 280 L950 280 L950 255 L50 255 L50 280 Z " />
<glyph glyph-name="quoteleft" unicode="&#x2018;" horiz-adv-x="229" d="M73 644 Q75 675 102.5 704 Q130 733 177 750 L177 740 Q143 728 122.5 707.5 Q102 687 102 666 Q102 647 105 634 Q108 621 114.5 611 Q121 601 132 593.5 Q143 586 158 577 Q159 577 159 575 Q159 574 158 571 Q156 564 150.5 550.5 Q145 537 137 537 Q119 537 106.5 548.5 Q94 560 86.5 576.5 Q79 593 76 609.5 Q73 626 73 638 Q73 641 73 644 Z " />
<glyph glyph-name="quoteright" unicode="&#x2019;" horiz-adv-x="229" d="M73 550 Q107 562 127.5 582.5 Q148 603 148 624 Q148 653 137.5 674.5 Q127 696 110 703 Q105 705 101 707 Q97 709 92 713 Q91 714 91 715 Q91 717 92 719 L101 742 Q106 753 113 753 Q131 753 143 741.5 Q155 730 162.5 713 Q170 696 173.5 678 Q177 660 177 646 Q177 615 148.5 586 Q120 557 73 540 L73 550 Z " />
<glyph glyph-name="quotedblleft" unicode="&#x201c;" horiz-adv-x="379" d="M223 644 Q223 659 230.5 677.5 Q238 696 251.5 712 Q265 728 284.5 739 Q304 750 327 750 L327 740 Q310 740 296 732.5 Q282 725 272.5 713.5 Q263 702 257.5 689.5 Q252 677 252 666 Q252 637 263 616.5 Q274 596 290 587 L308 577 Q309 576 309 574 Q309 573 308 568.5 Q307 564 303.5 556.5 Q300 549 296 543 Q292 537 287 537 Q269 537 257 548.5 Q245 560 237.5 577 Q230 594 226.5 612.5 Q223 631 223 644 Z M137 537 Q119 537 107 548.5 Q95 560 87.5 577 Q80 594 76.5 612.5 Q73 631 73 644 Q73 659 80.5 677.5 Q88 696 101.5 712 Q115 728 134.5 739 Q154 750 177 750 L177 740 Q160 740 146 732.5 Q132 725 122.5 713.5 Q113 702 107.5 689.5 Q102 677 102 666 Q102 637 113 616.5 Q124 596 140 587 L158 577 Q159 577 159 575 Q159 573 158 570 Q156 563 150.5 550 Q145 537 137 537 Z " />
<glyph glyph-name="quotedblright" unicode="&#x201d;" horiz-adv-x="379" d="M327 646 Q327 615 298.5 586 Q270 557 223 540 L223 550 Q257 562 277.5 582.5 Q298 603 298 624 Q298 653 287.5 674.5 Q277 696 260 703 Q255 705 251 707 Q247 709 242 713 Q241 714 241 715 Q241 717 242 719 L251 742 Q256 753 263 753 Q281 753 293 741.5 Q305 730 312.5 713 Q320 696 323.5 678 Q327 660 327 646 Z M177 646 Q177 615 148.5 586 Q120 557 73 540 L73 550 Q107 562 127.5 582.5 Q148 603 148 624 Q148 653 137 673.5 Q126 694 110 703 Q105 706 101 707.5 Q97 709 92 713 Q91 714 91 715 Q91 717 92 719 L101 742 Q106 753 113 753 Q131 753 143 741.5 Q155 730 162.5 713 Q170 696 173.5 678 Q177 660 177 646 Z " />
<glyph glyph-name="bullet" unicode="&#x2022;" horiz-adv-x="380" d="M130 235 Q130 262 146.5 278.5 Q163 295 190 295 Q217 295 233.5 278.5 Q250 262 250 235 Q250 208 233.5 191.5 Q217 175 190 175 Q163 175 146.5 191.5 Q130 208 130 235 Z " />
<glyph glyph-name="ellipsis" unicode="&#x2026;" horiz-adv-x="530" d="M465 20 Q465 6 455.5 -1.5 Q446 -9 435 -9 Q424 -9 414.5 -1.5 Q405 6 405 20 Q405 35 414.5 42 Q424 49 435 49 Q446 49 455.5 42 Q465 35 465 20 Z M295 20 Q295 6 285.5 -1.5 Q276 -9 265 -9 Q254 -9 244.5 -1.5 Q235 6 235 20 Q235 35 244.5 42 Q254 49 265 49 Q276 49 285.5 42 Q295 35 295 20 Z M125 20 Q125 6 115.5 -1.5 Q106 -9 95 -9 Q84 -9 74.5 -1.5 Q65 6 65 20 Q65 35 74.5 42 Q84 49 95 49 Q106 49 115.5 42 Q125 35 125 20 Z " />
<glyph glyph-name="guilsinglleft" unicode="&#x2039;" horiz-adv-x="244" d="M218 425 L224 425 L68 248 L224 70 L218 70 L18 248 L218 425 Z " />
<glyph glyph-name="guilsinglright" unicode="&#x203a;" horiz-adv-x="238" d="M20 70 L168 248 L20 425 L26 425 L218 248 L26 70 L20 70 Z " />
<glyph glyph-name="Euro" unicode="&#x20ac;" horiz-adv-x="499" d="M312 -9 Q259 -9 219.5 9.5 Q180 28 152.5 62 Q125 96 109.5 144.5 Q94 193 88 253 L11 253 L11 275 L87 275 Q85 298 85 323 Q85 329 85.5 347.5 Q86 366 89 394 L11 394 L11 416 L92 416 Q101 474 122.5 521 Q144 568 175.5 601 Q207 634 247 652 Q287 670 335 670 Q373 670 407.5 653 Q442 636 460 607 Q465 599 465.5 596 Q466 593 466 592 Q466 587 462 583 Q460 582 452 576 Q444 570 436 570 Q433 576 430 581 Q425 592 420 592 Q400 624 370.5 643 Q341 662 312 662 Q277 662 247 644.5 Q217 627 194 595 Q171 563 156 517.5 Q141 472 135 415 L358 415 L358 393 L133 393 Q131 370 131 345 Q131 339 131.5 320.5 Q132 302 134 274 L358 274 L358 252 L136 252 Q149 146 196.5 84 Q244 22 335 22 Q377 22 416 40 Q455 58 477 87 L479 88 L479 76 Q450 38 404.5 14.5 Q359 -9 312 -9 Z " />
<glyph glyph-name="uniA730" unicode="&#xa730;" horiz-adv-x="478" d="M69 55 L69 510 L66 546 L66 565 L409 565 L409 536 L392 536 L334 540 L109 540 L109 303 L269 303 Q301 306 333 306 L333 276 L311 276 Q279 278 245.5 278.5 Q212 279 177 279 L109 279 L109 55 L112 19 L112 0 L66 0 L66 19 L69 55 Z " />
<glyph glyph-name="uniA731" unicode="&#xa731;" horiz-adv-x="444" d="M69 104 L90 105 L129 49 Q130 47 136 43 Q168 28 193 19.5 Q218 11 232 11 Q285 11 317 48 Q349 85 349 145 Q349 189 316 221 Q283 253 217 281 Q152 308 119.5 342 Q87 376 87 424 Q87 493 126.5 534 Q166 575 232 575 Q262 575 294.5 562.5 Q327 550 351 529 L354 481 L333 480 Q325 491 305 515 Q285 539 263.5 546 Q242 553 228 553 Q182 553 154.5 521.5 Q127 490 127 438 Q127 397 157.5 367 Q188 337 249 311 Q318 282 353.5 245 Q389 208 389 155 Q389 80 346 35 Q303 -10 232 -10 Q200 -10 156 3.5 Q112 17 72 39 L69 104 Z " />
<glyph glyph-name="uniF078" unicode="&#xf078;" horiz-adv-x="596" d="M533 565 L530 561 Q528 559 526.5 556 Q525 553 522 549 Q471 486 422 421.5 Q373 357 322 293 L526 43 L547 19 Q549 17 549 17 Q552 13 553.5 9.5 Q555 6 557 4 Q559 2 560 0 L505 0 Q502 6 499 10 Q495 20 493 20 L295 265 L121 49 L98 19 Q97 18 92 10 L87 0 L55 0 L59 5 Q61 7 63 10.5 Q65 14 68 18 L95 50 Q143 107 189 164.5 Q235 222 282 280 L92 515 L65 547 Q64 549 61.5 551.5 Q59 554 57 557 Q55 561 52 565 L103 565 Q106 560 109 556 L115 546 L309 308 L493 546 Q498 555 500.5 559 Q503 563 504 565 L533 565 Z " />
</font>
</svg>
